<?xml version="1.0" standalone="no"?><!DOCTYPE svg PUBLIC "-//W3C//DTD SVG 1.1//EN" "http://www.w3.org/Graphics/SVG/1.1/DTD/svg11.dtd"><svg t="1544757630654" class="icon" style="" viewBox="0 0 1024 1024" version="1.1" xmlns="http://www.w3.org/2000/svg" p-id="16164" xmlns:xlink="http://www.w3.org/1999/xlink" width="200" height="200"><defs><style type="text/css"></style></defs><path d="M384 614.4z m-6.4 6.4z m-6.4 6.4z m-6.4 6.4c6.4 0 6.4 0 0 0 0 0 0 6.4 0 0 0 6.4 0 6.4 0 0 0 6.4 0 6.4 0 0 0 6.4 0 6.4 0 0 0 6.4 0 0 0 0z m0-6.4s0 6.4 0 0c0 6.4 0 6.4-6.4 12.8 6.4-6.4 6.4-6.4 6.4-12.8 0 6.4 0 0 0 0z m-185.6 179.2c-6.4 0-6.4 0 0 0-6.4 0-6.4 0 0 0-6.4 0-6.4 0 0 0z m-6.4 6.4z m-6.4 6.4s0 6.4 0 0c0 6.4 0 6.4 0 0 0 6.4 0 6.4 0 0 0 6.4 0 6.4 0 0 0 6.4 0 6.4 0 0 0 6.4 0 6.4 0 0 0 6.4 0 0 0 0z m-6.4 6.4c0 6.4 0 6.4 0 0 0 6.4 0 6.4 0 0 0 6.4 0 6.4 0 0 0 6.4 0 6.4 0 0 0 6.4 0 6.4 0 0z m-70.4 57.6s6.4 0 0 0z m0 6.4s-6.4 0 0 0c-6.4 0 0 0 0 0z m-32 38.4c-6.4 6.4-6.4 6.4 0 0-6.4 6.4-6.4 6.4 0 0-6.4 6.4-6.4 6.4 0 0-6.4 6.4-6.4 6.4 0 0-6.4 6.4-6.4 0 0 0z m147.2-236.8z m-19.2 12.8c0 6.4-6.4 6.4-6.4 6.4l6.4-6.4z m-44.8 70.4z m0 6.4s0 6.4 0 0c0 6.4 0 6.4 0 0 0 6.4 0 6.4 0 0 0 6.4 0 6.4 0 0 0 6.4 0 6.4 0 0 0 6.4 0 6.4 0 0 0 6.4 0 6.4 0 0 0 6.4 0 6.4 0 0 0 6.4 0 0 0 0z m-6.4 19.2z m6.4-76.8s0 6.4-6.4 6.4c0 6.4-6.4 6.4-6.4 12.8 0-6.4 6.4-6.4 6.4-12.8 0 0 6.4 0 6.4-6.4z m-19.2 25.6z m-6.4 12.8z m0 0s0 6.4 0 0c0 6.4 0 6.4 0 0 0 6.4 0 6.4 0 0 0 6.4 0 6.4 0 0 0 6.4 0 0 0 0z m-6.4 12.8z m-6.4 12.8s-6.4 0 0 0c-6.4 0-6.4 0 0 0-6.4 0-6.4 6.4 0 0-6.4 6.4-6.4 6.4 0 0-6.4 6.4-6.4 0 0 0-6.4 0-6.4 0 0 0-6.4 0-6.4 0 0 0z m563.2-691.2c0-6.4 0 0 0 0zM524.8 454.4c6.4 0 0 0 0 0z m19.2-25.6s0 6.4 0 0z m0-12.8c0-6.4 0-6.4 0 0 0-6.4 0-6.4 0 0 0-6.4 0-6.4 0 0 0-6.4 0-6.4 0 0z m6.4-19.2s0 6.4 0 0z m6.4 0c0-6.4 0 0 0 0z m0 19.2z m0-6.4c6.4 0 0 0 0 0z m6.4-25.6s-6.4 6.4 0 0z m0 19.2z m6.4-32s6.4 0 0 0c6.4 0 0 0 0 0z m6.4 19.2s-6.4 0 0 0z m0-25.6s0-6.4 0 0z m6.4 12.8z m0-19.2z m6.4 6.4z m6.4-25.6z m0 0z m0 19.2zM697.6 192z m-6.4 6.4z m0 0s0 6.4 0 0c0 6.4-6.4 6.4-6.4 6.4s6.4 0 6.4-6.4c0 6.4 0 0 0 0z m-6.4 12.8c0 6.4 0 6.4 0 0 0 6.4 0 6.4 0 0 0 6.4 0 6.4 0 0 0 6.4 0 6.4 0 0 0 6.4 0 6.4 0 0z m-6.4 6.4s0 6.4 0 0c0 6.4 0 6.4 0 0 0 6.4 0 6.4 0 0 0 6.4 0 6.4 0 0 0 6.4 0 0 0 0z m-6.4 6.4c0 6.4 0 6.4 0 0 0 6.4 0 6.4 0 0 0 6.4 0 6.4 0 0 0 6.4 0 6.4 0 0 0 6.4 0 6.4 0 0 0 6.4 0 6.4 0 0 0 6.4 0 6.4 0 0z m0 12.8c-6.4 0 0 0 0 0z m-6.4 0z m-6.4 12.8c0 6.4 0 6.4 0 0 0 6.4 0 6.4 0 0 0 6.4 0 6.4 0 0z m0 6.4z m-6.4 0s0 6.4 0 0c0 6.4 0 6.4 0 0 0 6.4 0 6.4 0 0 0 6.4 0 0 0 0z m-6.4 12.8z m-12.8 32z m-6.4 6.4s0 6.4 0 0c0 6.4 0 6.4 0 0 0 6.4 0 6.4 0 0 0 6.4 0 6.4 0 0 0 6.4 0 0 0 0z m-6.4 12.8c0 6.4 0 6.4 0 0 0 6.4 0 6.4 0 0 0 6.4 0 6.4 0 0-6.4 6.4 0 6.4 0 0 0 6.4 0 6.4 0 0z m-6.4 6.4s0 6.4 0 0c0 6.4 0 6.4 0 0 0 6.4 0 6.4 0 0 0 6.4 0 6.4 0 0 0 6.4 0 6.4 0 0 0 6.4 0 6.4 0 0 0 6.4 0 0 0 0z m-6.4 19.2c0-6.4-6.4 0 0 0-6.4 0 0 0 0 0z m-6.4 6.4s-6.4 0 0 0c-6.4 0-6.4 0 0 0z m38.4-89.6c12.8-25.6 25.6-44.8 38.4-64V192s0-6.4 6.4-6.4c0-6.4 6.4-6.4 6.4-12.8v6.4s0 6.4-6.4 6.4c0 0 0 6.4-6.4 6.4v25.6l-6.4 6.4c-6.4 6.4-12.8 19.2-12.8 25.6 0 0 0 6.4-6.4 6.4s-6.4 0-12.8 6.4c6.4-6.4 6.4 0 0 0 0 0 0 6.4-6.4 12.8v6.4c-6.4 6.4-12.8 12.8-12.8 19.2-6.4 6.4-12.8 19.2-25.6 32 12.8-12.8 19.2-25.6 25.6-32 6.4-6.4 6.4-12.8 12.8-19.2 0-6.4 0-12.8 6.4-19.2z m57.6-96c0 6.4 0 6.4 0 0 0 6.4 0 6.4 0 0 0 6.4 0 6.4 0 0 0 6.4 0 6.4 0 0z m-38.4 102.4s0 6.4 0 0c0 6.4 0 0 0 0z m0 6.4z m-128 185.6z m6.4-6.4s0-6.4 0 0c0-6.4 0-6.4 0 0 0-6.4 0-6.4 0 0 0-6.4 0 0 0 0z m0-6.4c6.4 0 6.4 0 0 0z m6.4-6.4z m6.4-6.4z m0 0z m0 0s0-6.4 0 0c0-6.4 0-6.4 0 0z m6.4-12.8c0 6.4 0 6.4 0 0-6.4 6.4 0 6.4 0 0z m0 0c0 6.4 0 6.4 0 0 0 6.4 0 6.4 0 0 0 6.4 0 6.4 0 0 0 6.4 0 6.4 0 0 0 6.4 0 6.4 0 0 0 6.4 0 6.4 0 0 0 6.4 0 6.4 0 0z m6.4 0c0-6.4 0-6.4 0 0 0-6.4 0-6.4 0 0 0-6.4 0-6.4 0 0 0-6.4 0-6.4 0 0z m0-6.4c6.4-6.4 6.4-6.4 0 0 6.4-6.4 6.4-6.4 0 0z m6.4-6.4c0-6.4 0-6.4 0 0 0-6.4 0-6.4 0 0 6.4-6.4 6.4-6.4 0 0 6.4-6.4 6.4-6.4 0 0 6.4-6.4 0-6.4 0 0 0-6.4 0-6.4 0 0z m12.8-19.2z m0-6.4c6.4 0 6.4 0 0 0 6.4 0 6.4 0 0 0 6.4 0 6.4 0 0 0 6.4 0 6.4 0 0 0 6.4 0 0 0 0 0z m12.8-12.8z m0 0z m6.4-6.4s0-6.4 0 0c0-6.4 0-6.4 0 0 0-6.4 0-6.4 0 0z m0-6.4c6.4 0 0 0 0 0z m0 0s6.4-6.4 0 0c6.4-6.4 6.4 0 0 0z m6.4-6.4s0-6.4 0 0c6.4-6.4 6.4-6.4 0 0 6.4-6.4 6.4-6.4 0 0 0-6.4 0 0 0 0z m12.8-19.2s0-6.4 0 0c0-6.4 0-6.4 0 0 0-6.4 0-6.4 0 0 0-6.4 0-6.4 0 0 0-6.4 0-6.4 0 0 0-6.4 0 0 0 0z m6.4-12.8z m0 0s0-6.4 0 0c0-6.4 0-6.4 0 0 0-6.4 0-6.4 0 0 0-6.4 0 0 0 0z m6.4-6.4c0-6.4 0-6.4 0 0 0-6.4 0-6.4 0 0 0-6.4 0-6.4 0 0 0-6.4 0-6.4 0 0z m6.4-6.4c0-6.4 0-6.4 0 0 0-6.4 0-6.4 0 0 0-6.4 0-6.4 0 0 0-6.4 0-6.4 0 0z m0-6.4c0-6.4 0-6.4 0 0 0-6.4 0-6.4 0 0z m6.4-6.4s0-6.4 0 0c0-6.4 0-6.4 0 0 0-6.4 0-6.4 0 0z m6.4-6.4c-12.8 12.8-19.2 25.6-25.6 38.4-6.4 6.4-6.4 12.8-12.8 19.2 6.4-6.4 6.4-12.8 12.8-19.2 6.4-12.8 12.8-25.6 25.6-38.4z m0-6.4z m38.4-12.8s-6.4 0 0 0c-6.4 0 0 0 0 0z m236.8 492.8h12.8c-6.4 6.4-6.4 0-12.8 0z m-217.6-57.6l-6.4 12.8s115.2 51.2 166.4 70.4c-32-6.4-89.6-25.6-89.6-25.6s128 70.4 192 89.6c-25.6-6.4-64-12.8-70.4-12.8-12.8 0-249.6-76.8-486.4-224v6.4c-6.4-6.4-12.8-12.8-19.2-12.8-6.4 6.4-6.4 12.8-12.8 19.2v-12.8c0-6.4 6.4-6.4 6.4-12.8 0 6.4-6.4 6.4-6.4 12.8 0-6.4 6.4-6.4 6.4-12.8-6.4 6.4-12.8 19.2-19.2 25.6 0 6.4-6.4 6.4-6.4 12.8 0-6.4 6.4-6.4 6.4-12.8 6.4-6.4 12.8-19.2 19.2-25.6v6.4l-6.4 6.4v12.8s0 6.4-6.4 6.4l-6.4 6.4v6.4c-6.4 12.8-12.8 19.2-19.2 32l-6.4 6.4 6.4-6.4c6.4-12.8 12.8-19.2 19.2-32 0 0 0-6.4 6.4-6.4 0-6.4 6.4-6.4 6.4-12.8 0 0 6.4-6.4 6.4-12.8-6.4-6.4-6.4-12.8 0-12.8-6.4 0-6.4 6.4-6.4 6.4 0 6.4-6.4 6.4-6.4 12.8v-6.4s0 6.4-6.4 6.4c0-6.4 6.4-6.4 6.4-12.8l6.4-6.4s0 6.4-6.4 6.4c0 6.4-6.4 6.4-6.4 12.8-12.8 12.8-19.2 32-32 44.8l-6.4 6.4 6.4-6.4s0-6.4 6.4-6.4c6.4-12.8 19.2-25.6 25.6-38.4 0-6.4 6.4-6.4 6.4-12.8 0 0 0-6.4 6.4-6.4h-6.4l-12.8 12.8c-6.4 12.8-12.8 19.2-19.2 25.6 0 6.4-6.4 6.4-6.4 12.8 0-6.4 6.4-6.4 6.4-12.8 6.4-6.4 12.8-19.2 19.2-25.6 0 6.4-6.4 12.8-12.8 19.2l-6.4 6.4v6.4s-6.4 6.4-6.4 12.8l-6.4 6.4c-6.4 6.4-6.4 12.8-12.8 19.2l-6.4 6.4-12.8 12.8s0 6.4-6.4 6.4c0 0 0 6.4-6.4 6.4 0 0 0 6.4-6.4 6.4l-6.4 6.4c0 6.4-6.4 12.8-12.8 19.2v6.4c0 6.4-6.4 6.4-6.4 12.8l-6.4 6.4v6.4c-6.4 6.4-6.4 12.8-12.8 19.2 0 0 0 6.4-6.4 6.4-6.4 12.8-12.8 19.2-19.2 32-6.4 6.4-6.4 12.8-12.8 19.2-6.4 6.4-6.4 12.8-12.8 12.8 6.4-6.4 12.8-19.2 19.2-25.6 0 0 0-6.4 6.4-6.4 0-6.4 6.4-6.4 6.4-12.8v-12.8s0-6.4 6.4-6.4c6.4-6.4 6.4-12.8 12.8-19.2 0 0 0-6.4 6.4-6.4 0 0 0-6.4 6.4-6.4 0 0 0-6.4 6.4-6.4l6.4-6.4 6.4-6.4c6.4-6.4 6.4-12.8 12.8-19.2 12.8-19.2 25.6-32 38.4-51.2l6.4-6.4c6.4-6.4 6.4-12.8 12.8-19.2-12.8 6.4-19.2 12.8-19.2 12.8-6.4 6.4-12.8 19.2-19.2 25.6l-6.4 6.4c0 6.4-6.4 6.4-6.4 12.8 0 0 0 6.4-6.4 6.4-6.4 6.4-6.4 12.8-12.8 12.8-6.4 6.4-6.4 12.8-12.8 19.2 0 6.4-6.4 6.4-6.4 12.8l-6.4 6.4-12.8 12.8c0 6.4-6.4 6.4-6.4 12.8-6.4 6.4-6.4 12.8-12.8 19.2-6.4 6.4-6.4 12.8-12.8 19.2 0 6.4-6.4 6.4-6.4 12.8-6.4 12.8-12.8 19.2-25.6 32v-6.4s0 6.4-6.4 6.4l-6.4 6.4s0 6.4-6.4 6.4v-6.4c0-6.4 6.4-12.8 12.8-19.2v6.4l-12.8 12.8c-6.4 6.4-6.4 12.8-12.8 19.2l-6.4 6.4v-6.4c6.4-6.4 6.4-12.8 12.8-19.2 6.4-6.4 6.4-12.8 12.8-19.2l6.4-12.8c6.4-6.4 12.8-12.8 12.8-19.2l-12.8 12.8-6.4 6.4c0 6.4-6.4 6.4-6.4 12.8l-6.4 6.4c-6.4 6.4-12.8 19.2-19.2 25.6l-6.4 6.4v-6.4c0-6.4 6.4-6.4 6.4-12.8s6.4-6.4 6.4-12.8l6.4-6.4c6.4-6.4 6.4-12.8 6.4-12.8s0-6.4 6.4-6.4v12.8l-6.4 6.4s0 6.4-6.4 6.4v6.4l-6.4 6.4v6.4c-6.4 6.4-6.4 12.8-12.8 19.2 0 0 0 6.4-6.4 6.4 0 0 0 6.4-6.4 6.4l-6.4 6.4c-6.4 6.4-6.4 12.8-12.8 19.2-6.4 6.4-12.8 19.2-19.2 25.6l-6.4 6.4c0 6.4-6.4 6.4-12.8 12.8v-6.4s0-6.4 6.4-6.4l6.4-6.4c0-6.4 6.4-6.4 6.4-12.8 12.8-19.2 25.6-32 38.4-51.2 0-6.4 6.4-6.4 6.4-12.8 19.2 0 19.2-6.4 25.6-12.8 0-6.4 6.4-6.4 6.4-12.8 6.4-6.4 6.4-12.8 12.8-19.2 12.8-19.2 25.6-32 32-51.2 19.2-25.6 32-51.2 51.2-76.8 12.8-6.4 19.2-19.2 25.6-25.6 6.4-6.4 6.4-12.8 12.8-19.2h-6.4v-6.4c-12.8 12.8-12.8 25.6-25.6 32l-6.4 6.4v-6.4l-6.4 6.4s0 6.4-6.4 6.4l-6.4 6.4v6.4c-6.4 6.4-6.4 12.8-12.8 19.2 0 6.4-6.4 6.4-6.4 12.8-6.4 6.4-6.4 12.8-12.8 19.2 0 6.4-6.4 6.4-6.4 12.8 0-6.4 6.4-6.4 6.4-12.8l19.2-19.2c-6.4 0-12.8 12.8-12.8 12.8h-6.4s0 6.4-6.4 6.4l6.4-6.4c6.4-6.4 6.4-6.4 6.4-12.8s0-6.4 6.4-6.4l6.4-6.4s0 6.4-6.4 6.4v6.4c-6.4 0-12.8 6.4-19.2 12.8-6.4 6.4-6.4 12.8-12.8 12.8-6.4 6.4-6.4 12.8-12.8 12.8 0 6.4-6.4 6.4-6.4 12.8-6.4 6.4-12.8 19.2-19.2 32-6.4 6.4-6.4 12.8-12.8 19.2 0 0 6.4-6.4 6.4-12.8 6.4-6.4 6.4-12.8 12.8-19.2 0 0 0-6.4 6.4-6.4 0-6.4 6.4-6.4 6.4-12.8-6.4 6.4-12.8 19.2-19.2 25.6v-6.4c6.4-6.4 6.4-6.4 6.4-12.8v-12.8l-6.4 6.4s0 6.4-6.4 6.4c-6.4 6.4-6.4 12.8-12.8 19.2 6.4-6.4 6.4-12.8 12.8-19.2h-6.4v-6.4c19.2 6.4 19.2 12.8 12.8 19.2-6.4 6.4-12.8 12.8-12.8 19.2 6.4-6.4 12.8-12.8 12.8-19.2 6.4-6.4 6.4-12.8 12.8-12.8 0 0 0-6.4 6.4-6.4 0-6.4 6.4-6.4 6.4-12.8-6.4 6.4-6.4 12.8-12.8 19.2l-19.2 19.2c-6.4 6.4-6.4 12.8-12.8 19.2 0 0-6.4 6.4-6.4 12.8l-6.4 6.4s0-6.4 6.4-6.4c0 0 0-6.4 6.4-6.4 6.4-6.4 12.8-19.2 19.2-25.6 0 0 0 6.4-6.4 6.4 0 6.4-6.4 6.4-6.4 12.8-6.4 6.4-6.4 12.8-12.8 19.2-6.4 12.8-12.8 19.2-25.6 32 0 0 0 6.4-6.4 6.4 0 6.4-6.4 6.4-6.4 12.8l6.4-6.4s0-6.4 6.4-6.4v-6.4l-6.4 6.4-6.4 6.4-6.4 6.4-6.4 6.4-19.2 19.2-6.4 6.4c0-6.4 6.4-6.4 6.4-12.8 6.4-6.4 6.4-12.8 12.8-19.2 6.4-6.4 6.4-12.8 12.8-19.2 0-6.4 6.4-6.4 6.4-12.8V896l6.4-6.4 6.4-6.4v-6.4c6.4-6.4 6.4-6.4 6.4-12.8 6.4-12.8 19.2-25.6 25.6-38.4 6.4-6.4 12.8-19.2 19.2-25.6 0-6.4 6.4-6.4 6.4-12.8 0 0 0-6.4 6.4-6.4 0 0 0-6.4 6.4-6.4 0-6.4 6.4-6.4 6.4-12.8s6.4-12.8 12.8-12.8v-6.4s0 6.4-6.4 6.4c-6.4 6.4-6.4 12.8-12.8 12.8-6.4 6.4-6.4 12.8-12.8 19.2 19.2-32 38.4-57.6 57.6-89.6 6.4-6.4 12.8-19.2 19.2-25.6l6.4-6.4c-6.4 6.4-12.8 12.8-19.2 25.6-6.4 6.4-6.4 12.8-12.8 19.2 0 0 0 6.4-6.4 6.4 19.2-12.8 12.8-6.4 12.8 0-6.4 12.8-12.8 19.2-25.6 32v-6.4c-6.4 6.4-12.8 19.2-19.2 25.6 0-6.4 6.4-6.4 6.4-6.4l-6.4 6.4c6.4-12.8 12.8-19.2 19.2-32 0 0 0-6.4 6.4-6.4v-6.4c0-6.4 6.4-6.4 6.4-12.8v-6.4l6.4-6.4 6.4-6.4c0-6.4 6.4-6.4 6.4-12.8s6.4-6.4 6.4-6.4c0-6.4 6.4-6.4 6.4-12.8 0 0 0-6.4 6.4-6.4 0 0 0-6.4 6.4-6.4 6.4-6.4 12.8-19.2 19.2-32 0 0 0-6.4 6.4-6.4v-12.8c0 6.4 0 6.4-6.4 12.8v6.4c-6.4 6.4-12.8 19.2-19.2 25.6 6.4-6.4 12.8-12.8 12.8-19.2 6.4-6.4 6.4-12.8 12.8-19.2 6.4-12.8 19.2-25.6 25.6-38.4 0-6.4 6.4-6.4 6.4-12.8 0 0 0-6.4 6.4-6.4l-6.4-6.4c-6.4 6.4-12.8 19.2-19.2 25.6-6.4 6.4-12.8 12.8-12.8 19.2l-6.4 6.4c-6.4 12.8-12.8 19.2-19.2 25.6-6.4 12.8-12.8 19.2-19.2 25.6l-6.4 6.4s0 6.4-6.4 6.4c0 6.4-6.4 6.4-6.4 12.8-6.4 6.4-6.4 12.8-12.8 19.2l-6.4 6.4c-6.4 6.4-12.8 12.8-12.8 19.2v12.8c0 6.4-6.4 6.4-6.4 12.8-6.4 6.4-6.4 12.8-12.8 19.2 0 6.4-6.4 6.4-6.4 12.8s-6.4 6.4-6.4 12.8c-6.4 6.4-6.4 12.8-12.8 19.2 0 6.4-6.4 6.4-6.4 12.8 0-6.4 6.4-6.4 6.4-12.8 6.4-6.4 6.4-12.8 12.8-19.2 0-6.4 6.4-6.4 6.4-12.8v-6.4 6.4s0-6.4 6.4-6.4v-6.4s0-6.4 6.4-6.4v-6.4c0-6.4 6.4-12.8 12.8-19.2 0 0 0 6.4-6.4 6.4 0 0 0-6.4 6.4-6.4V704c6.4-12.8 12.8-19.2 19.2-32 0 0 0-6.4 6.4-6.4 0 0 0-6.4 6.4-6.4 6.4-6.4 6.4-12.8 12.8-19.2 0 0 6.4-6.4 6.4-12.8l6.4-6.4s0-6.4 6.4-6.4c6.4-6.4 12.8-19.2 19.2-25.6 0-6.4 6.4-12.8 12.8-19.2 0 0 0-6.4 6.4-6.4 0 0 0-6.4 6.4-6.4l6.4-6.4s0-6.4 6.4-6.4c0-6.4 6.4-6.4 6.4-6.4s0-6.4 6.4-6.4v-6.4c0 6.4-6.4 6.4-6.4 12.8 0 0 0 6.4-6.4 6.4l-38.4 38.4c-6.4 6.4-6.4 12.8-12.8 12.8v6.4s0 6.4-6.4 6.4l-6.4 6.4c-6.4 12.8-6.4 12.8-12.8 19.2 0 6.4-6.4 12.8-6.4 12.8v6.4c-6.4 6.4-6.4 12.8-12.8 19.2l-6.4 6.4c0 6.4-6.4 12.8-12.8 12.8l-6.4 6.4v6.4c-6.4 6.4-6.4 12.8-12.8 19.2 0-6.4 6.4-6.4 6.4-12.8 0 0 0-6.4 6.4-6.4 0 0 0-6.4 6.4-6.4v-6.4s0-6.4 6.4-6.4l6.4-6.4s0-6.4 6.4-6.4c0 0 0-6.4 6.4-6.4-6.4-6.4 0-19.2 6.4-25.6 0 0 0-6.4 6.4-6.4 6.4-12.8 12.8-19.2 19.2-32l6.4-6.4 19.2-19.2s0-6.4 6.4-6.4c6.4-12.8 12.8-25.6 12.8-32 0 0 6.4-6.4 6.4-12.8 0 0 0-6.4 6.4-6.4-102.4-76.8-198.4-172.8-256-281.6l12.8-25.6 32 6.4 6.4-19.2h25.6s-38.4-25.6-25.6-38.4c12.8-12.8 38.4-6.4 38.4-6.4l38.4 19.2 32 6.4s6.4-25.6 134.4 96c32 25.6 57.6 51.2 76.8 70.4 19.2-12.8 32-25.6 38.4-44.8 0 0 0-6.4 6.4-6.4 0-6.4 6.4-6.4 6.4-12.8 12.8-12.8 19.2-32 32-44.8 0-6.4 6.4-6.4 6.4-12.8 6.4-12.8 12.8-19.2 19.2-32 12.8-25.6 32-51.2 44.8-70.4 6.4-6.4 6.4-12.8 12.8-19.2 0 0 0-6.4 6.4-6.4 0 0 0-6.4 6.4-6.4 6.4-12.8 6.4-19.2 12.8-19.2 6.4-6.4 6.4-12.8 12.8-19.2 6.4-12.8 19.2-25.6 25.6-38.4l6.4-6.4v6.4s-6.4 6.4 0 6.4v12.8s0 6.4-6.4 6.4v6.4l-6.4 6.4 6.4-6.4 6.4-6.4 6.4-6.4s0 6.4 6.4 0c0 0 0 6.4-6.4 6.4 0 6.4 0 6.4-6.4 12.8V64h12.8l6.4-6.4 6.4-6.4v6.4c0 6.4 0 0 6.4 0 0 0 6.4-12.8 12.8-12.8v6.4s0-6.4 6.4-6.4V38.4v12.8s-6.4 6.4 0 6.4v19.2l6.4-6.4v6.4l-6.4 6.4-6.4 6.4v12.8s-6.4 6.4 0 6.4l6.4-6.4s0-6.4 6.4-6.4c0-6.4 6.4-6.4 6.4-12.8v6.4s-6.4 6.4-6.4 12.8v6.4c6.4-6.4 12.8-6.4 19.2-19.2l6.4-6.4 6.4-6.4 6.4-6.4c0 6.4 6.4 0 6.4 0v6.4s0 6.4-6.4 6.4v6.4h6.4v19.2h6.4c0 6.4-6.4 6.4-6.4 12.8v12.8l6.4-6.4 6.4 6.4v25.6c0 6.4-6.4 6.4-6.4 12.8v6.4s0 6.4-6.4 6.4c0 6.4-6.4 6.4-6.4 12.8-6.4 12.8-19.2 25.6-25.6 38.4 0 0 0 6.4-6.4 6.4-44.8 6.4-51.2 12.8-57.6 25.6 0 6.4-6.4 12.8-12.8 19.2l-6.4 6.4c-25.6 38.4-44.8 70.4-70.4 108.8-12.8 19.2-25.6 38.4-44.8 57.6 6.4 6.4 12.8 12.8 19.2 12.8 0 0 0-6.4 6.4-6.4l6.4-6.4s0-6.4 6.4-6.4l6.4-6.4 12.8-12.8c6.4-6.4 6.4-12.8 12.8-12.8-6.4-12.8 0-19.2 6.4-32 0 0 6.4-6.4 6.4-12.8l6.4-6.4s0-6.4 6.4-6.4c12.8-25.6 32-51.2 44.8-70.4 0 0 0-6.4 6.4-6.4 0-6.4 6.4-12.8 12.8-19.2v-6.4 6.4s0 6.4-6.4 6.4 0-6.4 6.4-6.4c0 0 0-6.4 6.4-6.4 6.4-6.4 12.8-19.2 19.2-25.6 0-6.4 6.4-6.4 6.4-12.8s6.4-6.4 6.4-12.8c0 0 6.4-6.4 6.4-12.8s6.4-6.4 6.4-12.8c-6.4 6.4-6.4 0 0-6.4 0 0 0-6.4 6.4-6.4v-6.4s0-6.4 6.4-6.4v6.4c6.4-6.4 6.4 0 6.4-6.4 0 0 0 6.4-6.4 6.4-6.4 6.4-6.4 12.8-12.8 19.2V192s0 6.4-6.4 6.4v6.4c-6.4 12.8-12.8 25.6-19.2 32-6.4 12.8-19.2 25.6-25.6 44.8 12.8-12.8 19.2-32 25.6-44.8 0 0 0-6.4 6.4-6.4v6.4c-6.4 12.8-12.8 19.2-19.2 32-6.4 6.4-6.4 12.8-12.8 19.2 0 0 0 6.4-6.4 6.4 0 6.4-6.4 6.4-6.4 12.8-19.2 12.8-32 25.6-38.4 44.8l-12.8 12.8-6.4 6.4c0 12.8-6.4 12.8-12.8 19.2 0 6.4-6.4 6.4-6.4 12.8 0 0 0 6.4-6.4 6.4-6.4 12.8-12.8 19.2-12.8 25.6 0 0 0 6.4-6.4 6.4 0 6.4-6.4 6.4-6.4 12.8 0 0 0 6.4-6.4 6.4 0 0 0 6.4-6.4 6.4l-6.4 6.4c89.6 76.8 230.4 185.6 256 198.4l-6.4 19.2s102.4 64 153.6 70.4c-38.4-6.4-185.6-32-211.2-57.6zM371.2 614.4c6.4 0 6.4 0 0 0 6.4 0 6.4 0 0 0z m-204.8 275.2c0 6.4 0 6.4 0 0 0 6.4 0 6.4 0 0 0 6.4 0 6.4 0 0 0 6.4 0 6.4 0 0z m-12.8 12.8c6.4 0 6.4-6.4 0 0 6.4-6.4 0 0 0 0z m19.2-44.8z m0 25.6z m12.8-19.2l-6.4 6.4-6.4 6.4v-6.4c6.4 0 6.4-6.4 12.8-6.4-6.4 0 0 0 0 0z m0-6.4c0 6.4 0 6.4 0 0 0 6.4 0 6.4 0 0z m-108.8 44.8z m147.2-268.8z m32-38.4z m6.4-6.4c-6.4 6.4-6.4 6.4 0 0l-6.4 6.4 6.4-6.4c-6.4 6.4 0 0 0 0zM128 736c0 6.4 0 6.4 0 0z m0 0s6.4-6.4 0 0z m537.6-473.6z m-6.4 6.4c6.4-6.4 0 0 0 0zM486.4 441.6s0 6.4 0 0c0 6.4 0 6.4 0 0 0 6.4 0 6.4 0 0zM416 620.8z m-25.6-19.2z m108.8-179.2c0 6.4-6.4 12.8-12.8 19.2 6.4-6.4 12.8-12.8 12.8-19.2 0 0 6.4 0 0 0 6.4-6.4 6.4 0 0 0z m12.8 19.2c0 6.4-6.4 6.4-6.4 12.8l-6.4 6.4c6.4-6.4 6.4-12.8 12.8-19.2z m-12.8 19.2z m-448 550.4z m838.4-211.2s-12.8 0-19.2-6.4c19.2 0 25.6 6.4 19.2 6.4z m102.4 57.6c-6.4 0-6.4 0-12.8-6.4 25.6 12.8 44.8 12.8 12.8 6.4zM704 166.4z m0-6.4c0-6.4 0 0 0 0zM672 19.2s6.4 0 0 0c6.4 0 0 0 0 0z m-12.8 12.8c0-6.4 0-6.4 0 0 0-6.4 0 0 0 0z m-640 960c-6.4 6.4-6.4 0 0 0z m128-83.2s6.4 0 0 0c6.4 0 6.4 0 0 0 6.4 0 6.4 0 0 0 6.4 0 6.4 0 0 0z m12.8 6.4c-6.4 0-6.4 0 0 0-6.4 0-6.4 0 0 0-6.4 0-6.4 0 0 0-6.4 0-6.4 0 0 0-6.4 0-6.4 0 0 0z m0-12.8c0-6.4 0-6.4 0 0 0-6.4 0-6.4 0 0 0-6.4 0-6.4 0 0 0-6.4 0-6.4 0 0z m0 6.4z m12.8-19.2s0 6.4 0 0c0 6.4 0 6.4 0 0 0 6.4 0 6.4 0 0 0 6.4 0 6.4 0 0 0 6.4 0 0 0 0z m0 0z m6.4 19.2z m19.2-32z m6.4-6.4z m6.4-6.4c-6.4 0-6.4 0 0 0-6.4 0-6.4 0 0 0-6.4 0-6.4 0 0 0z m6.4-25.6z m6.4 6.4c-6.4 0-6.4 6.4 0 0-6.4 6.4-6.4 6.4 0 0-6.4 6.4-6.4 6.4 0 0-6.4 6.4-6.4 6.4 0 0-6.4 6.4-6.4 0 0 0z m0-12.8z m0 6.4z m6.4-12.8s-6.4 0 0 0c-6.4 0-6.4 0 0 0-6.4 0-6.4 0 0 0z m0 6.4s0-6.4 0 0c6.4-6.4 6.4-6.4 0 0 6.4-6.4 6.4-6.4 0 0 0-6.4 0 0 0 0z m6.4-12.8c0 6.4 0 6.4 0 0 0 6.4 0 6.4 0 0 0 6.4 0 6.4 0 0 0 6.4 0 6.4 0 0 0 6.4 0 6.4 0 0 0 6.4 0 6.4 0 0z m0 0c6.4-12.8 12.8-19.2 19.2-25.6 0-6.4 6.4-12.8 12.8-12.8-6.4 6.4-6.4 12.8-6.4 12.8-12.8 6.4-19.2 19.2-25.6 25.6z m6.4-32z m6.4-6.4z m6.4-6.4c-6.4 0 0 0 0 0z m0-6.4z m6.4-6.4z m25.6-38.4s0 6.4 0 0z m0 0z m-57.6 96c12.8-19.2 25.6-32 38.4-57.6 6.4-6.4 12.8-12.8 12.8-25.6 0-6.4 6.4-6.4 6.4-12.8 0 6.4-6.4 6.4-6.4 12.8l-6.4 6.4c0 6.4-6.4 6.4-6.4 12.8v6.4l-38.4 57.6z m44.8-57.6c0-6.4 6.4-6.4 6.4-12.8 0 6.4 0 6.4-6.4 12.8l-6.4 6.4c6.4 0 6.4-6.4 6.4-6.4z m25.6-51.2c0 6.4 0 6.4 0 0 0 6.4 0 6.4 0 0 0 6.4 0 6.4 0 0 0 6.4 0 6.4 0 0 0 6.4 0 6.4 0 0z m0 0c6.4-12.8 12.8-19.2 25.6-32 6.4-6.4 12.8-12.8 19.2-25.6-6.4 6.4-12.8 12.8-19.2 25.6-12.8 12.8-19.2 19.2-25.6 32z m32-32c-19.2 25.6-32 51.2-51.2 70.4 19.2-19.2 32-44.8 51.2-70.4z m-32 51.2c0 6.4 0 6.4 0 0-6.4 6.4 0 0 0 0z m0 19.2s-6.4 0 0 0c-6.4 0 0 0 0 0z m0 38.4z m0-64s6.4 0 0 0c6.4 0 0 0 0 0z m12.8-6.4c-6.4 0-6.4 0 0 0zM320 704c-6.4 0 0 0 0 0z m6.4-6.4s0-6.4 0 0c0-6.4 0-6.4 0 0z m0-6.4z m0 0c6.4 0 0 0 0 0z m6.4-6.4s0-6.4 0 0c6.4-6.4 0 0 0 0z m0 51.2c6.4 0 0 0 0 0z m6.4-57.6z m6.4-6.4c-6.4 0-6.4 0 0 0-6.4 6.4-6.4 6.4 0 0-6.4 6.4-6.4 6.4 0 0-6.4 6.4-6.4 6.4 0 0-6.4 0-6.4 0 0 0z m0-6.4s0 6.4 0 0z m0 0z m0-6.4c6.4 0 6.4 0 0 0 6.4 0 6.4 0 0 0 6.4 0 6.4 0 0 0 6.4 0 6.4 0 0 0 6.4 0 6.4 0 0 0 6.4 0 6.4 0 0 0z m6.4 0z m0 0z m0 0z m6.4-6.4c-6.4 0-6.4 0 0 0-6.4 0-6.4 0 0 0-6.4 0-6.4 0 0 0z m0-6.4c6.4 0 6.4 0 0 0 6.4 0 0 0 0 0z m6.4-6.4z m-6.4 6.4s0-6.4 6.4-6.4l-6.4 6.4c6.4 0 0 0 0 0 0 6.4 0 6.4 0 0l-6.4 6.4 6.4-6.4c0 6.4 0 6.4 0 0z m12.8 38.4z m19.2-19.2s0-6.4 0 0c0-6.4 0-6.4 0 0 0-6.4 0-6.4 0 0 0-6.4 0-6.4 0 0 0-6.4 0-6.4 0 0 0-6.4 0-6.4 0 0z m0-6.4l-6.4 6.4c6.4 0 6.4-6.4 6.4-6.4z m6.4-6.4z m0 0c0-6.4 0 0 0 0z m12.8-25.6c-6.4 6.4 0 0 0 0z m-6.4 12.8l6.4-6.4-6.4 6.4c0 6.4-6.4 6.4-6.4 12.8 0-6.4 6.4-12.8 6.4-12.8z m12.8-12.8z" p-id="16165" fill="#d81e06"></path></svg>