<?xml version="1.0" standalone="no"?><!DOCTYPE svg PUBLIC "-//W3C//DTD SVG 1.1//EN" "http://www.w3.org/Graphics/SVG/1.1/DTD/svg11.dtd"><svg t="1544753028040" class="icon" style="" viewBox="0 0 1024 1024" version="1.1" xmlns="http://www.w3.org/2000/svg" p-id="5875" xmlns:xlink="http://www.w3.org/1999/xlink" width="200" height="200"><defs><style type="text/css"></style></defs><path d="M255.112685 499.629648c0-61.714293-0.101638-120.262578-0.101637-194.173372 70.114633-22.228122 147.287991-48.760593 253.189189-72.81819 105.896117 24.057597 183.069474 50.590068 253.184108 72.81819 0 73.915876-0.101638 132.459079-0.101638 194.178454 0 173.886526-141.824975 269.537582-253.08247 299.363108-111.252413-29.830608-253.087552-125.486746-253.087552-299.36819z" p-id="5876" fill="#4bc4f5"></path><path d="M928.618696 231.692857c-4.624506-4.619425-11.551102-6.926596-18.48278-6.926596-13.868438 0-23.107287 9.238849-23.107287 23.097123 0 4.619425 2.312253 9.238849 4.624506 13.863356 50.818753 73.920958 78.540382 161.695107 78.540383 254.093763 0 254.093763-207.899517 461.988198-461.998363 461.988198-254.093763 0-461.988198-207.894435-461.988198-461.988198s207.894435-461.988198 461.988198-461.988198c115.495779 0 226.372134 43.892157 311.844194 122.427457 4.624506 4.619425 9.238849 6.931678 16.170527 6.931678 13.868438 0 23.107287-9.238849 23.107287-23.102205 0-6.931678-4.624506-13.863356-9.238849-18.477699-90.091485-83.164889-210.201607-133.983641-341.878077-133.983641a506.723946 506.723946 0 0 0-508.187526 508.187526c0 281.815393 226.372134 508.187526 508.187526 508.187526a506.713783 506.713783 0 0 0 508.187527-508.187526c0.005082-106.25693-32.335972-203.275011-87.769068-284.122564z" p-id="5877" fill="#4bc4f5"></path></svg>