<?xml version="1.0" standalone="no"?><!DOCTYPE svg PUBLIC "-//W3C//DTD SVG 1.1//EN" "http://www.w3.org/Graphics/SVG/1.1/DTD/svg11.dtd"><svg t="1544778326126" class="icon" style="" viewBox="0 0 1024 1024" version="1.1" xmlns="http://www.w3.org/2000/svg" p-id="2126" xmlns:xlink="http://www.w3.org/1999/xlink" width="200" height="200"><defs><style type="text/css"></style></defs><path d="M737.28 81.92C657.92 81.92 491.52 0 491.52 0s-122.88 81.92-204.8 81.92c-81.888 0-163.84-40.96-163.84-40.96l0 532.48C122.88 822.272 450.56 1024 512 1024s389.12-201.728 389.12-450.56L901.12 40.96C901.12 40.96 819.2 81.92 737.28 81.92zM758.176 410.624l-260.672 260.672c-15.936 15.904-41.984 15.904-57.92 0l-173.792-173.792c-15.936-15.936-15.936-41.984 0-57.92 15.936-15.936 41.984-15.936 57.92 0l144.8 144.8 231.712-231.712c15.936-15.936 41.984-15.936 57.92 0C774.112 368.64 774.112 394.688 758.176 410.624z" p-id="2127" fill="#008e40"></path></svg>