<?xml version="1.0" standalone="no"?>
<!DOCTYPE svg PUBLIC "-//W3C//DTD SVG 1.1//EN" "http://www.w3.org/Graphics/SVG/1.1/DTD/svg11.dtd" >
<!--
2013-9-30: Created.
-->
<svg>
<metadata>
Created by iconfont
</metadata>
<defs>

<font id="iconfont" horiz-adv-x="1024" >
  <font-face
    font-family="iconfont"
    font-weight="500"
    font-stretch="normal"
    units-per-em="1024"
    ascent="896"
    descent="-128"
  />
    <missing-glyph />
    
    <glyph glyph-name="chart-line" unicode="&#60518;" d="M896 64H128V672a32 32 0 0 1-64 0v-640a32 32 0 0 1 32-32h800a32 32 0 1 1 0 64zM247.008 256c7.424 0 14.88 2.56 20.96 7.808l179.744 155.84 174.56-155.52a31.968 31.968 0 0 1 44.704 2.08l250.432 269.216a32 32 0 1 1-46.88 43.616l-229.088-246.304-172.128 153.44a32.064 32.064 0 0 1-42.272 0.288l-200.992-174.24A32 32 0 0 1 247.008 256z"  horiz-adv-x="1024" />

    
    <glyph glyph-name="chart-pie1" unicode="&#59029;" d="M463.246 328.41999999999996V794.396h-0.682C207.304 794.396 0.455 587.89 0.455 333.198 0.455 78.50699999999995 207.303-128 462.222-128c128.342 0 244.338 52.338 328.022 136.76L463.246 328.41999999999996zM863.29 38.62800000000004L515.64 388.494 866.475 736.37l19.968-19.57c89.03-87.324 138.069-203.833 138.069-328.021 0-125.839-50.062-243.371-141.028-330.81l-20.195-19.341zM596.025 388.21l267.491-269.198C930.93 193.13800000000003 967.68 287.85799999999995 967.68 388.779c0 99.441-35.897 193.251-101.66 267.093L596.025 388.21zM541.412 896v-427.52L844.06 770.844C766.578 848.2139999999999 659.57 896 541.412 896z"  horiz-adv-x="1026" />

    
    <glyph glyph-name="chart-bar" unicode="&#59030;" d="M930.5 114.29999999999995H774.2c0.1 1.4 0.4 2.7 0.4 4V672.1c0 22.4-18.1 40.5-40.5 40.5h-67.8c-22.4 0-40.5-18.1-40.5-40.5v-553.7c0-1.4 0.3-2.7 0.4-4h-42.7c0 0.4 0.1 0.8 0.1 1.2V467c0 22.4-18.1 40.5-40.5 40.5h-65c-22.4 0-40.5-18.1-40.5-40.5v-351.5c0-0.4 0.1-0.8 0.1-1.2h-47.9V394c0 22.4-18.1 40.5-40.5 40.5h-59.4c-22.4 0-40.5-18.1-40.5-40.5v-279.7H93.5c-16.3 0-29.5-13.2-29.5-29.5s13.2-29.5 29.5-29.5h837c16.3 0 29.5 13.2 29.5 29.5 0 16.4-13.2 29.5-29.5 29.5z"  horiz-adv-x="1024" />

    
    <glyph glyph-name="chart-pie" unicode="&#59202;" d="M572.2 832c-3.3 0-6.7-0.2-10-0.2v-387.5h397.7C960.1 658.3 786.3 832 572.2 832zM469.7-63.60000000000002C244.7-57.89999999999998 64.2 126 64.1 352.20000000000005c0 226.3 180.6 410.3 405.5 416l29.1 0.7v-388.3h397.7v-28.4c0-229.9-186.3-416.2-416.2-416.2-4.2 0.1-7.8 0.2-10.5 0.4z m-27.8 387.4V709.5C261.5 690.3 121 537.7 121 352.20000000000005c0-195.3 156-354.1 350-359.1 3.8-0.1 6.9-0.2 9.3-0.2 99.3 0 188.9 40.2 254 105.3 58.8 58.8 97.2 137.7 104.1 225.6H441.9z"  horiz-adv-x="1024" />

    
    <glyph glyph-name="analytics-graph-bar" unicode="&#59028;" d="M202.66008 10.66216A10.66632 10.66632 0 0 1 213.3264 21.32848v85.33056a42.66528 42.66528 0 0 1-42.66528 42.66528H85.33056a42.66528 42.66528 0 0 1-42.66528-42.66528v-85.33056a10.66632 10.66632 0 0 1 10.66632-10.66632zM458.65176 10.66216a10.66632 10.66632 0 0 1 10.66632 10.66632v298.65696a42.66528 42.66528 0 0 1-42.66528 42.665281H341.32224a42.66528 42.66528 0 0 1-42.66528-42.665281v-298.65696a10.66632 10.66632 0 0 1 10.66632-10.66632zM714.643441 10.66216a10.66632 10.66632 0 0 1 10.66632 10.66632v213.3264a42.66528 42.66528 0 0 1-42.66528 42.66528h-85.33056a42.66528 42.66528 0 0 1-42.66528-42.66528v-213.3264a10.66632 10.66632 0 0 1 10.66632-10.66632zM970.635121 10.66216a10.66632 10.66632 0 0 1 10.66632 10.66632v511.983361a42.66528 42.66528 0 0 1-42.66528 42.66528h-85.33056a42.66528 42.66528 0 0 1-42.66528-42.66528v-511.983361a10.66632 10.66632 0 0 1 10.66632-10.66632zM149.32848 319.98544a85.33056 85.33056 0 0 1 85.33056 85.330561 84.51992 84.51992 0 0 1-4.266528 25.599168l135.120942 112.636339a83.410622 83.410622 0 0 1 104.273945 19.626029l106.6632-35.582844A85.33056 85.33056 0 0 1 746.642401 533.311841a83.79461 83.79461 0 0 1-9.85568 38.910735l140.240776 163.621349A85.074568 85.074568 0 1 1 831.972961 810.636161a83.709279 83.709279 0 0 1 3.967871-24.361875L688.190967 613.863889a82.429321 82.429321 0 0 1-91.346364-25.300511l-106.663201 35.540179A85.117234 85.117234 0 1 1 324.256128 593.043233L189.263182 480.236232A84.263928 84.263928 0 0 1 149.32848 490.646561a85.33056 85.33056 0 0 1 0-170.661121zM981.301441-42.66944H42.66528a43.347925 43.347925 0 0 1-42.66528-42.66528 42.66528 42.66528 0 0 1 42.66528-42.66528h938.636161a42.66528 42.66528 0 0 1 42.66528 42.66528 43.305259 43.305259 0 0 1-42.66528 42.66528z"  horiz-adv-x="1024" />

    
    <glyph glyph-name="analytics-graph-bar1" unicode="&#59032;" d="M31.957333-128a32 32 0 0 0 0 64h32v138.666667c0 29.397333 23.936 53.333333 53.333334 53.333333H234.666667c29.397333 0 53.333333-23.936 53.333333-53.333333v-138.666667h95.957333V458.666667c0 29.397333 23.936 53.333333 53.333334 53.333333H554.666667c29.397333 0 53.333333-23.936 53.333333-53.333333V-64h96v330.666667c0 29.354667 23.893333 53.290667 53.248 53.333333H874.666667c29.397333 0 53.333333-23.936 53.333333-53.333333v-330.666667h31.957333a32 32 0 0 0 0-64H31.957333z m832.042667 64V256H768v-320h96z m-320 0v512h-96.042667v-512h96.042667z m-320 0v128H127.957333v-128H224zM95.957333 351.957333c-52.949333 0-96 43.050667-96 96a96.085333 96.085333 0 0 0 113.194667 94.421334l144.426667 144.298666A96.085333 96.085333 0 0 0 351.957333 800a96.085333 96.085333 0 0 0 96-96v-1.194667l145.962667-39.04a95.701333 95.701333 0 0 0 122.368 29.354667L833.28 784.64A96.128 96.128 0 0 0 928 896C980.906667 896 1024 852.949333 1024 800S980.949333 704 928 704a95.573333 95.573333 0 0 0-63.36 23.936l-104.576-81.834667A96.085333 96.085333 0 0 0 672 512a96.128 96.128 0 0 0-95.829333 90.197333l-150.613334 40.277334a95.701333 95.701333 0 0 0-134.4-12.714667L170.112 508.842667c14.037333-17.066667 21.845333-38.485333 21.845333-60.885334a96.085333 96.085333 0 0 0-96-96z m0 128a32 32 0 1 1 0-64 32 32 0 0 1 0 64zM672 640a32 32 0 1 1 0.085333-64.085333A32 32 0 0 1 672 640zM351.957333 735.957333a32 32 0 1 1 0-64 32 32 0 0 1 0 64zM928 832a32 32 0 0 1 0-64 32 32 0 0 1 0 64z"  horiz-adv-x="1024" />

    
    <glyph glyph-name="analytics-graph-bar2" unicode="&#59052;" d="M21.333324-128a21.333324 21.333324 0 0 0 0 42.666649H42.666649v170.666595c0 23.55199 19.157325 42.666649 42.666649 42.666649h85.333298c23.509324 0 42.666649-19.114659 42.666648-42.666649v-170.666595h85.333298v383.99984c0 23.55199 19.157325 42.666649 42.666649 42.666649h85.333298c23.509324 0 42.666649-19.114659 42.666649-42.666649v-383.99984h85.333298v298.666542a42.666649 42.666649 0 0 0 42.666648 42.666649h85.333298a42.666649 42.666649 0 0 0 42.666649-42.666649v-298.666542h85.333298V511.999733c0 23.509324 19.114659 42.666649 42.666649 42.666649h85.333298c23.55199 0 42.666649-19.157325 42.666648-42.666649v-597.333084h21.333325a21.333324 21.333324 0 0 0 0-42.666649H21.333324zM938.666276-85.333351V511.999733h-85.333298v-597.333084h85.333298z m-255.999894 0v298.666542h-85.333298v-298.666542h85.333298z m-255.999893 0v383.99984H341.333191v-383.99984h85.333298z m-255.999893 0v170.666595H85.333298v-170.666595h85.333298zM127.999947 319.999813c-47.061314 0-85.333298 38.271984-85.333298 85.333298s38.271984 85.333298 85.333298 85.333298c17.919993 0 35.285319-5.674664 49.749312-16.127993l129.194613 107.690621A84.778631 84.778631 0 0 0 298.666542 618.666356c0 47.061314 38.271984 85.333298 85.333298 85.333297a85.418631 85.418631 0 0 0 85.119965-91.178628l99.327958-33.10932a84.906631 84.906631 0 0 0 109.055955 30.165321l141.226608 164.735931A85.162631 85.162631 0 0 0 895.999627 895.999573c47.061314 0 85.333298-38.271984 85.333297-85.333297s-38.271984-85.333298-85.333297-85.333298c-17.919993 0-35.157319 5.631998-49.621313 15.999993l-136.49061-159.231934c10.026662-14.250661 15.445327-31.274654 15.445327-48.767979 0-47.061314-38.271984-85.333298-85.333298-85.333298a85.418631 85.418631 0 0 0-85.119964 91.263962l-99.327959 33.10932a84.949298 84.949298 0 0 0-121.301283-22.911991l-129.194612-107.690622c5.461331-11.391995 8.27733-23.850657 8.277329-36.437318 0-47.061314-38.271984-85.333298-85.333297-85.333298z m0 127.999947c-23.509324 0-42.666649-19.157325-42.666649-42.666649s19.157325-42.666649 42.666649-42.666649 42.666649 19.157325 42.666649 42.666649-19.157325 42.666649-42.666649 42.666649z m511.999786 127.999947a42.709316 42.709316 0 0 1 0-85.333298 42.709316 42.709316 0 0 1 0 85.333298z m-255.999893 85.333297c-23.509324 0-42.666649-19.157325-42.666649-42.666648s19.157325-42.666649 42.666649-42.666649 42.666649 19.157325 42.666649 42.666649-19.157325 42.666649-42.666649 42.666648zM895.999627 853.332924a42.709316 42.709316 0 0 1 0-85.333297 42.709316 42.709316 0 0 1 0 85.333297z"  horiz-adv-x="1024" />

    
    <glyph glyph-name="md-analytics" unicode="&#59026;" d="M758.8 539.4l-174.4-266.8C598 256 606 235 606 212c0-53-43-96-96-96s-96 43-96 96c0 6 0.6 12 1.6 17.8l-115.2 67c-17.2-16.6-40.6-26.8-66.6-26.8-17.2 0-33.2 4.6-47.2 12.4L64 167.6v-114.4c0-47 38.4-85.4 85.4-85.4h725.4c47 0 85.4 38.4 85.4 85.4V478.4l-117.2 77.8c-16.2-12.6-36.6-20.2-58.8-20.2-8.8 0-17.4 1.2-25.4 3.4zM234 462c53 0 96-43 96-96 0-4.2-0.4-8.4-0.8-12.4l120.2-67.2c16.6 13.6 37.6 21.6 60.8 21.6 7.2 0 14.2-0.8 20.8-2.2l174.8 270.8c-11.2 15.6-17.8 34.8-17.8 55.6 0 53 43 96 96 96s96-43 96-96c0-7.8-1-15.4-2.6-22.6l82.6-55.2V714.6c0 47-38.4 85.4-85.4 85.4H149.4C102.4 800 64 761.6 64 714.6V256l80 76.6c-3.8 10.4-6 21.6-6 33.4 0 53 43 96 96 96z"  horiz-adv-x="1024" />

    
    <glyph glyph-name="ios-analytics" unicode="&#59027;" d="M512 800C282.2 800 96 613.8 96 384s186.2-416 416-416 416 186.2 416 416S741.8 800 512 800zM152 384c0 96.2 37.4 186.6 105.4 254.6S415.8 744 512 744c96.2 0 186.6-37.4 254.6-105.4 64.4-64.4 101.4-149 105.2-239.4-17.6 20.6-48.4 48-87.6 48-55 0-83.4-51.4-102-85.4-2.8-5-5.4-9.8-7.8-14-22.8-38.4-54.6-60-85-57.8-26.8 1.8-49.6 22.4-64.4 57.6-18.4 44.2-58.2 91.6-105.8 98.4-22.6 3.2-56.2-1.6-89.4-42.8-6.4-8-13.8-18.8-22.2-31.2-20.8-31-52.4-77.6-76.2-81.6-34.6-5.6-61.8 15-72.8 24.6-4.4 22.4-6.6 45.6-6.6 69z"  horiz-adv-x="1024" />

    
    <glyph glyph-name="coin" unicode="&#59025;" d="M512 832c246.4 0 448-198.4 448-448 0-246.4-201.6-448-448-448-249.6 0-448 201.6-448 448C64 633.6 262.4 832 512 832z m28.8-300.8v-70.4h172.8v-230.4h-57.6v176h-115.2V0c198.4 16 355.2 182.4 355.2 384 0 214.4-172.8 384-384 384C297.6 768 128 598.4 128 384c0-201.6 156.8-368 355.2-384V403.2h-115.2v-176H310.4v233.6h172.8v67.2l-169.6-16-3.2 28.8-3.2 28.8 403.2 35.2 3.2-28.8 3.2-28.8-176-16z"  horiz-adv-x="1024" />

    
    <glyph glyph-name="wechat-pay" unicode="&#59024;" d="M404.511405 295.134043c-4.042059-2.043542-8.602935-3.223415-13.447267-3.223415-11.197016 0-20.934798 6.169513-26.045189 15.278985l-1.959631 4.296863-81.56569 178.973184c-0.880043 1.954515-1.430582 4.14746-1.430582 6.285147 0 8.251941 6.686283 14.944364 14.938224 14.944364 3.351328 0 6.441713-1.108241 8.94165-2.966565l96.242971-68.521606c7.037277-4.609994 15.433504-7.305383 24.464181-7.305383 5.40101 0 10.533914 1.00284 15.328104 2.75167l452.645171 201.459315C811.496653 732.725356 677.866167 795.222759 526.648117 795.222759c-247.448742 0-448.035176-167.158091-448.035176-373.361453 0-112.511493 60.353576-213.775828 154.808832-282.214547 7.582699-5.405103 12.537548-14.292518 12.537548-24.325012 0-3.312442-0.712221-6.358825-1.569752-9.515724-7.544837-28.15013-19.62599-73.202209-20.188808-75.314313-0.940418-3.529383-2.416026-7.220449-2.416026-10.917654 0-8.245801 6.692423-14.933107 14.944364-14.933107 3.251044 0 5.89015 1.202385 8.629541 2.7793l98.085946 56.621579c7.377014 4.266164 15.188934 6.89913 23.790846 6.89913 4.577249 0 9.003048-0.703011 13.174044-1.978051 45.75509-13.159718 95.123474-20.476357 146.239666-20.476357 247.438509 0 448.042339 167.162184 448.042339 373.372709 0 62.451354-18.502399 121.275087-51.033303 173.009356L407.778822 297.02204300000005 404.511405 295.134043z"  horiz-adv-x="1024" />

    
    <glyph glyph-name="sort-vertical-3" unicode="&#59051;" d="M851.2 217.60000000000002l-102.4 0c0 0 0 0 0 0l0 256c0 19.2-12.8 32-32 32-19.2 0-32-12.8-32-32l0-256c0 0 0 0 0 0L582.4 217.60000000000002l0 0 115.2-115.2c12.8-12.8 32-12.8 44.8 0L851.2 217.60000000000002 851.2 217.60000000000002zM294.4 672L179.2 556.8l0 0 102.4 0c0 0 0 0 0 0l0-256c0-19.2 12.8-32 32-32 19.2 0 32 12.8 32 32l0 256c0 0 0 0 0 0l102.4 0 0 0L339.2 672C326.4 684.8 307.2 684.8 294.4 672z"  horiz-adv-x="1024" />

    
    <glyph glyph-name="sort-vertical-2" unicode="&#59020;" d="M368 189.27999999999997l-64-64V320h-64v-194.72l-64 64L130.72 144 272 2.7200000000000273 413.28 144 368 189.27999999999997zM272 765.28L130.72 624 176 578.72l64 64V448h64V642.72l64-64L413.28 624 272 765.28zM480 704h416v-64H480zM480 512h416v-64H480zM480 320h416v-64H480zM480 128h416v-64H480z"  horiz-adv-x="1024" />

    
    <glyph glyph-name="sort-horizontal-1" unicode="&#59022;" d="M188.758 536.1859999999999h534.863l-61.022-45.768c-16.852-12.641-20.27-36.545-7.629-53.393a38.13 38.13 0 0 1 53.393-7.63L860.921 543.81a38.142 38.142 0 0 1 0 60.643L713.705 718.87c-16.642 12.955-40.635 9.969-53.585-6.674-12.954-16.637-9.969-40.631 6.674-53.585l59.879-46.148H188.758c-21.064-0.003-38.134-17.079-38.134-38.138 0-21.064 17.07-38.134 38.134-38.139z m649.28-306.028H303.174l61.023 45.768c16.848 12.636 20.264 36.541 7.625 53.388-12.636 16.852-36.541 20.27-53.393 7.634l-152.555-114.42a38.148 38.148 0 0 1-15.005-30.322 38.14 38.14 0 0 1 15.005-30.316L313.09 47.47000000000003a38.139 38.139 0 0 1 23.265-8.009 38.143 38.143 0 0 1 30.13 14.875c12.897 16.55 9.999 40.408-6.482 53.393l-59.879 46.153h537.915c21.059 0 38.134 17.074 38.134 38.138-0.001 21.059-17.076 38.133-38.135 38.138z m0 0"  horiz-adv-x="1024" />

    
    <glyph glyph-name="sort-vertical-1" unicode="&#59023;" d="M156.392727 239.476364a43.52 43.52 0 0 0 61.207273-7.214546l113.105455-144.058182V805.701818a43.752727 43.752727 0 1 0 87.272727 0v-843.403636a43.752727 43.752727 0 0 0-29.323637-41.425455 42.123636 42.123636 0 0 0-14.196363-2.327272 43.287273 43.287273 0 0 0-34.210909 16.756363L148.945455 178.269091a43.52 43.52 0 0 0 7.447272 61.207273zM634.414545 847.1272730000001a43.752727 43.752727 0 0 0 48.64-14.429091l191.069091-242.967273a43.752727 43.752727 0 1 0-69.818181-53.992727l-111.941819 144.058182v-717.498182a43.752727 43.752727 0 1 0-87.272727 0V805.701818a44.218182 44.218182 0 0 0 29.323636 41.425455z"  horiz-adv-x="1024" />

    
    <glyph glyph-name="voice" unicode="&#59119;" d="M511.936 190.272c-105.888 0-192 86.112-192 192L319.936 638.048c0 105.888 86.112 192 192 192s192-86.112 192-192l0-255.776C703.936 276.416 617.824 190.272 511.936 190.272zM511.936 766.048c-70.592 0-128-57.408-128-128l0-255.776c0-70.592 57.408-128 128-128 70.592 0 128 57.408 128 128L639.936 638.048C639.936 708.64 582.528 766.048 511.936 766.048zM864 416.224 864 544c0 17.664-14.304 32-32 32s-32-14.336-32-32l0-127.776c0-160.16-129.184-290.464-288-290.464-158.784 0-288 130.304-288 290.464L224 544c0 17.664-14.336 32-32 32s-32-14.336-32-32l0-127.776c0-184.608 140.864-336.48 320-352.832L480 0 288 0c-17.664 0-32-14.304-32-32s14.336-32 32-32l448 0c17.696 0 32 14.304 32 32s-14.304 32-32 32l-192 0 0 63.36C723.136 79.744 864 231.616 864 416.224z"  horiz-adv-x="1024" />

    
    <glyph glyph-name="withdrawal" unicode="&#59075;" d="M552.64 660.928v-178.4a38.592 38.592 0 0 0-77.216 0V664.832l-72.512-72.544a38.592 38.592 0 1 0-54.592 54.592l163.776 163.776 163.776-163.776a38.592 38.592 0 1 0-54.592-54.592L552.64 660.928z m38.592-120.48h270.24c21.312 0 38.592-17.28 38.592-38.592v-115.84H128v115.84c0 21.312 17.28 38.592 38.592 38.592h270.24v-57.92a77.216 77.216 0 1 1 154.4 0v57.92z m308.832-231.616v-270.24c0-21.312-17.28-38.592-38.592-38.592H166.592C145.28 0 128 17.279999999999973 128 38.591999999999985v270.24h772.064zM205.216 173.72799999999995h212.32V250.88H205.216v-77.184z"  horiz-adv-x="1024" />

    
    <glyph glyph-name="coupon" unicode="&#59019;" d="M75.899132 519.564535l0-117.616768c30.988782 0 56.110949-25.121144 56.110949-56.110949 0-30.988782-25.122167-56.110949-56.110949-56.110949L75.899132 132.242116c0-23.11751 18.739806-41.857317 41.856293-41.857317l120.57003 0L238.325455 561.421852 117.756449 561.421852C94.638939 561.421852 75.899132 542.682046 75.899132 519.564535zM807.312354 545.672146c0 7.150864-7.892761 13.926174-10.191106 15.749706L297.390689 561.421852l0-471.037053 495.909533 0c2.437515 3.083222 7.612375 10.787694 7.612375 20.676925 0 30.634718-30.514991 19.200294-30.514991 52.173267 0 33.966603 36.914748 19.196201 36.914748 55.617715 0 31.012318-36.914748 18.212804-36.914748 53.648874 0 34.95 36.914748 17.717524 36.914748 53.649897 0 35.932374-36.914748 21.657252-36.914748 57.585533 0 36.425607 36.914748 24.610514 36.914748 58.080813 0 33.469276-36.914748 23.62507-36.914748 50.204425S807.312354 520.569422 807.312354 545.672146zM615.898837 434.045813l-63.537082-79.345116 49.205679 0c4.623297 0 8.370645-3.748371 8.370645-8.371668l0-28.542056c0-4.623297-3.747347-8.371668-8.370645-8.371668l-60.288085 0 0-23.624047 60.288085 0c4.623297 0 8.370645-3.747347 8.370645-8.371668l0-28.541033c0-4.623297-3.747347-8.370645-8.370645-8.370645l-60.288085 0 0-43.265386c0-5.327332-4.318352-9.646708-9.645684-9.646708l-32.887015 0c-5.326309 0-9.644661 4.321422-9.644661 9.647731l0 43.264363-67.181075 0c-4.624321 0-8.371668 3.747347-8.371668 8.370645l0 28.541033c0 4.624321 3.747347 8.371668 8.371668 8.371668l67.181075 0 0 23.624047-67.181075 0c-4.624321 0-8.371668 3.748371-8.371668 8.371668l0 28.542056c0 4.623297 3.747347 8.371668 8.371668 8.371668l54.915727 0L413.302629 434.045813c-2.836605 3.619434-2.201132 8.854669 1.415232 11.69025l22.344914 17.513886c3.618411 2.837628 8.852622 2.204202 11.691273-1.415232l65.846684-82.229816 65.846684 82.229816c2.837628 3.619434 8.071839 4.252861 11.69025 1.415232l22.345937-17.513886C618.097922 442.900481 618.735441 437.665247 615.898837 434.045813zM946.112584 561.421852c0 33.470299-36.915771 23.626094-36.915771 50.205449s36.915771 28.547173 36.915771 53.649897c0 7.150864-7.892761 13.926174-10.191106 15.749706l-499.731582 0 0-75.306126 431.80861 0c2.298346-1.822508 10.18906-8.598842 10.18906-15.749706 0-25.102724-36.914748-27.071565-36.914748-53.649897s36.914748-16.73515 36.914748-50.204425-36.914748-21.654182-36.914748-58.07979c0-35.928281 36.914748-21.654182 36.914748-57.586556 0-35.931351-36.914748-18.698874-36.914748-53.648874 0-35.43607 36.914748-22.63758 36.914748-53.648874 0-35.503609-35.060517-22.384823-36.82879-53.162804l90.7427 0c2.436492 3.084245 7.611352 10.788717 7.611352 20.677948 0 30.635741-30.516014 19.200294-30.516014 52.17429 0 33.965579 36.915771 19.195178 36.915771 55.617715 0 31.011294-36.915771 18.212804-36.915771 53.647851 0 34.948977 36.915771 17.717524 36.915771 53.648874 0 35.931351-36.915771 21.658276-36.915771 57.586556C909.196813 539.76767 946.112584 527.952576 946.112584 561.421852zM377.126708 681.0269040000001L256.556679 681.0269040000001c-23.11751 0-41.856293-18.739806-41.856293-41.856293l0-33.449833 162.426323 0L377.126708 681.0269040000001z"  horiz-adv-x="1024" />

    
    <glyph glyph-name="parents" unicode="&#59016;" d="M109.893436 191.018345c61.181896 26.963463 122.302071 53.935342 183.430663 80.901611 15.278641 12.927649 30.503978 25.855299 45.72651 38.780142l95.156252-216.465184 84.571178 216.465184c15.685436-13.25589 31.426981-26.441644 47.112416-39.694729l125.545205-53.870816c1.568263 5.117195 3.299244 9.648044 5.091945 13.455079 45.502071 19.099704 86.246049 39.689118 113.276844 46.649512 27.608723-71.522893 69.632-123.746893 120.6272-164.098104 55.733655 43.305381 96.253195 98.685545 124.560482 163.708142 29.000241-5.773677 66.271036-18.302948 96.777819-25.914214 26.276121-54.263584 26.966268-183.924427 25.527058-263.440132L788.387419-12.505162c0.987529-35.632395 0.642455-72.504811 0-109.708274-235.926795 0-471.797479 0-707.668164 0C75.916274 28.289315 84.714258 135.579266 109.893436 191.018345L109.893436 191.018345zM827.105841 483.248307c54.765764-7.409271 160.226542 3.355353 204.157545 22.746827 1.736592-28.882411 2.19669-84.972362-15.691047-127.918641-8.388384-20.317282-20.8896-36.406707-33.800416-48.854619l103.314586-2.429545c0 0-10.355025 83.521929-7.229721 105.171814 42.373962 296.474652-340.753534 296.474652-298.379573 0 3.069195-21.647079-7.235332-105.171814-7.235332-105.171814l104.074871 2.48846c-12.910816 12.388997-25.414838 28.478422-33.806027 48.795704-13.951649 33.514258-16.723463 74.9568-16.437304 105.286838L827.105841 483.248307 827.105841 483.248307zM297.431321 442.035814c-5.669874 57.708712-6.890258 98.517216 10.708515 156.223123 66.562805 40.634564 147.944153-25.005238 245.998466-2.373436 9.608767-47.984921 12.964121-88.905644 10.068866-156.573808 0 0 38.14891 32.821304 43.470904 60.895737 5.38091 28.071627-4.687956 152.923879-18.117786 172.893282-53.943759 80.110466-252.827003 82.655036-311.983342 13.659879-15.971595-18.695715-34.322236-189.274477-16.959123-211.965195C278.039847 452.051375 297.431321 442.035814 297.431321 442.035814z"  horiz-adv-x="1263" />

    
    <glyph glyph-name="student" unicode="&#59017;" d="M408.874667 340.12586699999997C348.855467 375.829333 308.6336 441.352533 308.6336 516.266667c0 113.109333 91.682133 204.8 204.8 204.8 113.109333 0 204.8-91.690667 204.8-204.8 0-75.899733-41.288533-142.1568-102.634667-177.536 105.557333-30.634667 192.7552-105.826133 240.827734-203.4432h-56.170667c-62.1568 99.067733-172.782933 169.3184-290.474667 169.3184-117.696 0-230.212267-70.250667-293.666133-169.3184H163.131733c48.8192 99.127467 137.984 175.133867 245.7472 204.8384zM513.4336 362.66666699999996c84.821333 0 153.6 68.770133 153.6 153.6s-68.778667 153.6-153.6 153.6c-84.8384 0-153.6-68.770133-153.6-153.6s68.7616-153.6 153.6-153.6zM932.266667 168.53333299999997a25.6 25.6 0 0 0 0-51.2c-101.7728 0-231.965867-30.9504-390.084267-93.179733a76.8 76.8 0 0 0-56.064-0.072533C326.656 86.35733300000004 196.433067 117.33333300000004 96 117.33333300000004a25.6 25.6 0 0 0 0 51.2c107.793067 0 243.857067-32.362667 408.746667-96.759466a25.6 25.6 0 0 1 18.688 0.021333c163.584 64.384 299.690667 96.738133 408.832 96.738133z"  horiz-adv-x="1024" />

    
    <glyph glyph-name="teacher" unicode="&#59018;" d="M516.352 343.808c-116.352 0-211.072 94.72-211.072 211.072 0 116.352 94.72 211.072 211.072 211.072 116.352 0 211.072-94.72 211.072-211.072 0-116.48-94.72-211.072-211.072-211.072z m0 370.944c-88.192 0-159.872-71.68-159.872-159.872 0-88.192 71.68-159.872 159.872-159.872s159.872 71.68 159.872 159.872c0 88.192-71.68 159.872-159.872 159.872zM858.496 52.73599999999999h-51.2c0 160.512-130.56 291.072-291.072 291.072S225.28 213.24800000000005 225.28 52.73599999999999h-51.2c0 188.672 153.472 342.272 342.272 342.272s342.144-153.6 342.144-342.272zM528.768 104.44799999999998l37.632 161.28a12.7872 12.7872 0 0 1-12.416 15.744H478.72c-8.192 0-14.336-7.68-12.416-15.744l37.632-161.28c3.072-13.184 21.76-13.184 24.832 0z"  horiz-adv-x="1024" />

    
    <glyph glyph-name="courses" unicode="&#60824;" d="M607.259 712.414l62.472 25.42c32.252 13.14 69.028-2.37 82.141-34.622a45.897 45.897 0 0 0 1.478-4.032l186.37-565.516c10.369-31.481-5.416-65.611-36.101-78.103l-62.505-25.422c-32.219-13.139-68.994 2.37-82.103 34.621a48.663 48.663 0 0 0-1.479 4.032L571.16 634.308c-10.402 31.482 5.418 65.612 36.099 78.106zM393.654 742.05h63.026c34.804 0 63.027-28.221 63.027-63.027V89.77999999999997c0-34.807-28.224-63.025-63.027-63.025h-63.026c-34.807 0-63.025 28.219-63.025 63.025V679.023c-0.001 34.806 28.218 63.027 63.025 63.027z m-252.105 0h63.025c34.804 0 63.026-28.221 63.026-63.027V89.77999999999997c0-34.807-28.222-63.025-63.026-63.025h-63.025c-34.807 0-63.031 28.219-63.031 63.025V679.023c0 34.806 28.224 63.027 63.031 63.027z"  horiz-adv-x="1024" />

    
    <glyph glyph-name="video1" unicode="&#59015;" d="M849.5-66l-675 0c-66.284 0-112.5 46.216-112.5 112.5l0 675c0 66.284 46.216 112.5 112.5 112.5l675 0c66.284 0 112.5-46.216 112.5-112.5l0-675c0-66.284-46.216-112.5-112.5-112.5zM99.5 684l0-75 150 0-72.858 182.135c-46.619-13.532-77.142-53.522-77.142-107.135zM249.5 796.5l75.001-187.5 112.481 0-74.982 187.5-112.5 0zM436.982 796.5l75.018-187.5 112.5 0-75 187.5-112.519 0zM624.5 796.5l75-187.5 112.5 0-75 187.5-112.5 0zM924.5 684c0 66.284-46.216 112.5-112.5 112.5l75.001-187.5 37.499 0 0 75zM924.5 571.5l-824.999 0 0-487.5c0-66.284 46.216-112.5 112.5-112.5l600 0c66.284 0 112.5 46.216 112.5 112.5l0 487.5zM362 459l337.5-187.5-337.5-187.5 0 374.999z"  horiz-adv-x="1024" />

    
    <glyph glyph-name="guangda" unicode="&#59077;" d="M139.552 853.344l478.72 0c0 0 90.304 0 107.328-25.568l-88.608 0 0-27.264 136.288-1.664c0 0 22.144-15.328 22.144-27.264l-158.432-1.696 0-25.536 175.488 0c0 0 20.48-10.24 15.392-32.384l-546.848 0 0-28.96 555.296 1.728c0 0 3.424-22.144 3.424-28.96l-558.72 0 0-28.928 560.416 1.664c0 0 3.424-17.024-5.088-28.928l-555.296-5.152 0-27.264 546.848 3.424c0 0 0-22.144-13.696-28.96l-533.152-3.424 0-25.536 516.16 3.424c0 0-1.76-27.264-20.48-32.384l-495.68-1.664 0-27.264 454.816 3.392c0 0-10.208-34.08-80.096-30.624l-85.12 1.664 0-25.536 137.952-1.728c0 0 57.952 0 66.464-23.84l-204.416-5.152 0-25.536 240.192 0c0 0 22.144-17.024 22.144-27.264l-551.968-3.392 0-30.688 563.84 5.088c0 0 22.144-15.296 22.144-30.624l-585.984-3.392 0-25.568 594.496 0c0 0 6.784-8.512 3.424-23.872l-597.952-5.088 0-25.536 597.952 0c0 0 5.088-15.328 0-27.264l-597.952-3.424 0-27.264 592.832 0c0 0 5.088-17.024-8.512-30.624l-584.32 0 0-27.264 572.352 1.728c0 0-1.664-27.296-13.632-28.96l-202.752 0 0-28.96 175.488 1.696c0 0-11.936-27.264-23.84-30.688l-151.648-1.728 0-28.928 102.24 1.664c0 0-15.392-32.352-149.888-27.264l-449.792 1.696 0 931.872 0 0z"  horiz-adv-x="1024" />

    
    <glyph glyph-name="minsheng" unicode="&#59080;" d="M639.2576 470.74816l101.60128 62.49984-226.6368 126.61248L300.12928 537.92768l178.14016-100.02432c289.13664 3.10784 375.1168-153.15968 375.1168-153.15968 71.90016-232.96-351.63648-247.95648-351.63648-247.95648-240.74752-26.58816-354.816 188.52864-354.816 188.52864L0.0256 220.60032C171.95008-128 798.38208 24.86784 798.38208 24.86784c323.51232 101.59616 184.72448 300.47232 184.72448 300.47232C890.9056 442.624 639.2576 470.74816 639.2576 470.74816zM378.20928 305.96096c-34.19648-20.1216-68.42368-40.22784-102.62016-60.34432 74.42432-42.24512 148.88448-84.51584 223.30368-126.75584l204.40064 119.80288-204.18048 108.50304c-36.49536 8.38144-74.97216-4.79232-99.03616-5.15584-115.64032-1.536-276.224 125.07648-233.14432 235.52 83.93216 240.86016 644.97152 206.08 700.12416-36.23936 52.37248 0 104.63232 0 156.96384 0-76.87168 186.112-338.28352 224.4352-496.68096 235.41248C368.9216 787.64032 43.98592 767.85664 3.97312 571.4636800000001-27.84256 415.19616 210.9696 323.44064000000003 378.20928 305.96096zM611.13344 539.4636800000001L509.53728 594.2118399999999 412.66176 531.64032 514.22208 480.03584ZM406.36928 237.78815999999995L504.8576 181.50400000000002 611.13344 237.78815999999995 507.96544 294.07232Z"  horiz-adv-x="1025" />

    
    <glyph glyph-name="pufa" unicode="&#59082;" d="M260.808516 472.543615c68.938092 58.936297 142.92006 53.561893 168.758542 49.262984-13.46671 27.89942-65.274656 116.555599-181.831278 116.555599-107.47478 0-179.724291-94.754061-179.724291-183.146227 0 0 0.044002-174.944428 0.132006-327.755766 0-20.72809 15.572674-33.449833 15.572674-33.449833l95.499028-73.127508c0 0 19.082614-16.20917 19.082614 8.378831 0 82.954317 0.042979 298.18938 0.042979 298.18938-0.042979 0.547469-0.306992 3.223415-0.306992 7.567349C198.033797 357.17095800000004 203.253682 423.23663 260.808516 472.543615zM951.721325 652.0929209999999c0 20.660552-15.661701 33.339316-15.661701 33.339316l-95.236038 73.192999c0 0-19.125593 16.120143-19.125593-8.400321 0-82.953294 0-293.166993 0-293.166993 0-0.548492 0.109494-3.201925 0.109494-7.457856 0-22.328541-5.066389-88.326675-62.796208-137.546679-68.740594-59.08877-142.766564-53.6939-168.670537-49.438992 13.510712-27.877931 65.318658-116.402103 181.830255-116.402103 107.519806 0 179.725314 94.666056 179.725314 183.16874C951.89631 329.38205500000004 951.809329 499.236558 951.721325 652.0929209999999zM646.776078 478.991468l2.961448 2.478448c57.159838 46.587038 125.855406 42.595121 148.929938 39.371706-9.649777 26.955932-50.841945 116.117624-173.232436 116.117624-69.441559 0-114.625644-36.827767-140.025127-67.644633-30.531364-36.585243-37.989219-79.684854-39.743166-102.254895-10.045797-106.290815-66.854641-157.308769-73.347518-162.792667-63.387679-52.399417-128.157845-45.600571-151.473877-40.796148 11.053754-28.579919 55.842843-119.605052 177.487344-116.511597 48.430012 1.403976 91.157139 20.244067 126.909411 56.084343 40.095183 40.052205 48.604998 102.453417 50.272987 120.483048C584.067874 414.593785 628.08846 462.540797 646.776078 478.991468z"  horiz-adv-x="1024" />

    
    <glyph glyph-name="zhaoshang" unicode="&#59012;" d="M474.5824 843.7088c-49.7888-6.384-85.5328-15.3184-105.9584-20.4256C262.6656 792.6432 149.0496 694.3456 99.264 590.9408000000001c-16.5984-38.2976-19.1488-45.9552-21.7024-52.3392-7.6608-21.7024-20.4256-68.9376-20.4256-77.872-6.384-48.512-7.6608-95.7408-2.5536-126.3872 7.6576-51.0624 8.9344-60 11.488-66.3776 7.6608-26.8096 16.5952-52.3424 20.4256-61.2768 5.1072-14.0448 19.1488-40.8512 26.8096-53.6192 10.2112-16.5952 25.5328-38.2976 37.0208-54.8928 11.488-15.3184 51.0624-54.8928 63.8304-65.1072 6.3808-5.104 12.7648-10.2112 14.0416-11.488 37.0208-34.4672 121.2768-72.7648 186.384-86.8096 54.8928-11.4912 122.5536-14.0416 169.7856-5.1104 77.872 14.048 154.4672 45.9584 200.4256 84.256 35.744 28.0864 68.9376 61.2768 82.9824 77.8752 11.488 15.3184 22.976 31.9168 38.2944 54.8928 12.768 19.1488 37.0208 71.488 37.0208 79.1488 0 3.824-68.9344 3.824-70.208 1.2736 0-1.2736 2.5536-7.6608 5.1072-15.3184 6.3808-14.0448 6.3808-12.768-5.1072-30.6368-53.6192-79.1488-58.7264-88.0864-63.8304-94.4672-15.3184-24.256-19.1488-29.3632-22.9824-30.6368-6.3808-2.5568-545.1072-1.2768-548.9344 1.2736-1.2768 1.2736-5.1072 6.384-8.9376 12.7616-68.9344 98.304-72.7648 104.6848-77.872 111.0688-10.2112 14.0416-10.2112 14.0416-5.1072 25.5328 5.1072 15.3184 19.1488 48.5088 19.1488 49.7888C358.4128 733.92 367.3472 755.6224 369.9008 762.0064c3.8304 10.2112 12.7648 29.36 14.0416 28.0832 1.2768-1.2736 25.5328-57.4464 25.5328-58.7232 88.0864-214.4672 93.1904-225.9552 97.0208-233.616 2.5536-8.9344 6.384-16.5952 7.6608-16.5952 1.2768 0 10.2112 17.872 30.6368 70.2112 68.9376 172.3424 71.4912 177.4496 71.4912 178.7232 5.104 17.8752 24.2528 62.5536 26.8064 62.5536 1.2768 0 8.9376-16.5952 14.048-29.36 71.488-178.7232 74.0416-185.1072 76.5952-192.768 6.384-12.7648 16.5952-39.5744 20.4256-51.0624 3.8304-8.9376-5.1072-7.6608 103.4048-7.6608l95.744 1.2768c-2.5568 22.9792-31.92 88.0864-56.1696 125.1072-71.4944 108.512-188.9376 183.8304-315.3248 201.7024C556.2848 843.7088 493.7312 844.9856 474.5824 843.7088zM599.6864 513.0688c-1.2736-2.5536-3.8272-7.6576-10.2112-24.2528-104.6816-256.5984-107.2352-264.256-109.7856-269.3632-7.6608-19.1456-8.9376-19.1456-15.3216-1.2768-102.128 247.664-108.5088 264.256-112.3392 274.4672-10.2144 25.5328-10.2144 25.5328-17.872 5.1072-112.3424-274.4672-114.8928-280.8512-117.4464-287.2352-2.5536-6.3808-5.1072-12.7648-5.1072-14.0416 1.2768-1.2768 40.8512-1.2768 260.4256-1.2768l259.1488 1.2768 0 2.5504c-86.8096 215.7472-97.0208 238.7264-104.6848 260.4288C603.52 516.8992000000001 603.52 516.8992000000001 599.6864 513.0688zM775.8592 468.3904l93.1904 0c107.2352 0 95.744-1.2768 93.1904 12.7648l-2.5504 10.2112-95.7472 0-95.744 0L775.8592 468.3904zM784.7936 446.688l8.9376-20.4256 88.08-1.2768 88.0864 0c0 15.3184-1.2736 20.4256-2.5536 20.4256C964.7936 447.9648 787.3472 449.2416 784.7936 446.688zM803.9424 403.2832l7.6608-22.9792 79.1456 0c67.664 0 79.1488 0 80.4288 1.2768 2.5536 3.8304 1.2736 20.4256-1.2768 21.7024S806.4928 404.56 803.9424 403.2832zM821.8112 358.59839999999997c-1.2736-1.2736 3.8304-17.8688 6.3872-20.4256 2.5504-2.5536 137.872-2.5536 140.4256 0 2.5536 2.5568 2.5536 20.4256 0 20.4256C966.0704 359.87840000000006 821.8112 359.87840000000006 821.8112 358.59839999999997zM838.4128 315.19680000000005c-1.2736-2.5536 3.8272-16.5984 7.6576-21.7024 1.2768-1.2736 10.2144-1.2736 58.7264-1.2736L962.24 292.22080000000005l3.8304 24.256L902.24 316.4768C852.4576 316.47360000000003 839.6864 316.47360000000003 838.4128 315.19680000000005zM856.2848 270.51520000000005c2.5536-8.9344 3.8272-14.0416 5.104-16.5984 2.5568-5.104 1.2768-5.104 48.512-5.104l42.128 1.2768 1.2768 3.824 3.8304 17.8752-51.0688 0C879.264 271.7952 856.2848 271.7952 856.2848 270.51520000000005z"  horiz-adv-x="1024" />

    
    <glyph glyph-name="zhongxin" unicode="&#59013;" d="M464.766293 811.91936c-32.863573-3.46112-55.350613-8.649387-88.2176-19.029333-34.594133-12.107093-53.620053-20.75648-57.07776-27.675307-6.92224-10.376533-1.73056-22.48704 13.837653-27.675307 57.081173-22.48704 102.05184-65.73056 119.350613-122.811733 10.376533-29.405867 8.649387-8.645973 10.376533-347.675307l0-313.081173 17.298773 0c20.75648-1.733973 46.697813-1.733973 67.457707 0l17.298773 0L565.090987 265.3184c1.727147 340.763307 0 320 10.379947 349.40928 19.022507 57.081173 62.266027 100.324693 119.3472 122.811733 24.214187 8.649387 22.48704 27.675307-1.727147 39.7824C625.629867 808.45824 539.14624 822.295893 464.766293 811.91936zM238.17216 715.052373c-51.892907-43.24352-93.405867-98.594133-122.811733-166.05184-72.649387-166.055253-22.48704-373.623467 119.350613-494.70464 19.029333-15.571627 17.298773-29.405867 17.298773 138.379947l0 150.48704-3.46112 5.19168c-17.29536 19.022507-55.350613 3.454293-67.457707-29.405867-6.918827-17.298773-10.379947-17.298773-19.02592-6.918827-20.75648 24.214187-29.405867 65.73056-20.75648 98.594133 5.188267 22.48704 22.483627 51.892907 29.402453 51.892907 3.46112-1.73056 5.19168-1.73056 12.110507-15.568213 13.837653-32.863573 50.162347-46.70464 65.727147-27.675307 3.46112 3.457707 5.19168 306.162347 1.73056 306.162347C250.279253 725.43232 243.360427 720.24064 238.17216 715.052373zM777.847467 42.18538699999999l5.188267 3.46112c46.708053 32.866987 107.246933 114.158933 129.733973 171.24352 1.73056 5.19168 3.46112 10.379947 5.188267 13.837653 3.46112 6.918827 13.841067 41.51296 17.298773 57.081173 1.73056 5.19168 3.46112 12.11392 3.46112 15.571627 8.645973 36.324693-1.73056 55.350613-25.94816 53.623467-19.02592-3.46112-36.328107-17.298773-46.701227-44.97408-12.11392-27.671893-44.97408 41.51296-39.785813 83.02592 3.46112 38.05184 31.133013 81.298773 38.05184 62.26944 25.94816-62.26944 86.48704-64 76.107093-3.457707-13.837653 88.2176-55.3472 167.7824-117.620053 231.7824-8.645973 10.379947-22.48704 20.75648-27.671893 27.675307-6.918827 5.19168-17.298773 10.379947-17.298773 10.379947L777.85088 42.18538699999999zM317.740373 651.052373l0-652.10368 12.107093-5.19168c27.675307-13.837653 55.350613-24.2176 65.73056-24.2176l5.188267 0c0 593.298773 0 581.188267-10.376533 614.055253-10.379947 27.675307-39.785813 62.26944-65.73056 74.376533C317.740373 663.16288 316.009813 663.16288 317.740373 651.052373zM703.474347 657.9712c-39.785813-20.75648-65.733973-60.53888-74.379947-107.24352-1.733973-20.75648-3.464533-579.457707 0-582.92224 1.727147 0 3.454293 0 6.915413 1.733973 3.464533 1.73056 10.379947 3.46112 13.837653 3.46112 12.107093 5.188267 29.405867 12.107093 43.246933 17.29536 8.645973 3.46112 15.568213 6.915413 15.568213 6.915413s1.73056 1.733973 1.73056 3.464533c3.457707 5.188267 1.727147 660.75648 0 660.75648C708.6592 661.43232 705.201493 659.70176 703.474347 657.9712z"  horiz-adv-x="1024" />

    
    <glyph glyph-name="bcm" unicode="&#59123;" d="M716.32406 209.47205799999995c-41.275056-1.319042-79.408561-2.63092-120.683617-3.976568-26.100448-111.201661-242.280022-81.152275-218.218 59.966767 12.110829 83.569324 125.08895 120.039957 195.123003 56.929594 15.414061-17.373693 22.935362-33.567513 27.904537-68.960605 34.586726 1.344624 81.285305 2.710738 115.874077 4.003174 1.802042 179.76113-202.426339 271.064602-355.548762 183.762257-146.786111-83.599-129.812531-338.415546 23.954575-403.484517 0-1.344624 0-2.685155 0-4.02978-83.868129 1.665942-175.843914 66.655096-195.901739 143.834896l1.179872 414.547481c66.517973 45.251623 140.098805 99.549274 206.752878 144.824433 2.604314-1.369184 5.262864-2.65855 7.948019-4.027733-4.563946-62.434981-1.665942-165.449169 2.038426-240.693898 41.680285 40.495296 69.822229 82.845847 141.820006 96.888677 46.457078 9.049097 90.793866 3.573385 118.858038-5.961782 210.374358-72.101131 223.50747-343.950609 44.979424-437.506379-4.02978 0-12.756535-7.92653-19.282159-9.212826 0 1.367137 4.080945 7.115048 7.330966 13.156648C705.715445 169.53753400000005 711.06222 189.52065700000003 716.32406 209.47205799999995L716.32406 209.47205799999995z"  horiz-adv-x="1024" />

    
    <glyph glyph-name="psbc" unicode="&#59014;" d="M572.437 746l-22.912-107.153H368.877l-45.783-211.836H158.969l-19.093-85.99-3.787-21.194L117 233.836h165.373L236.589 22h394.373l19.09 85.99 26.666 125.846H797.62l17.776 85.991h-170.41l-17.809-85.991-27.98-125.846H305.286l3.819 19.942h262.048l45.821 213.088h202.27l19.094 85.991H585.14l-17.775-85.99-27.98-127.132H328.16l3.786 19.947h180.68l17.776 85.991 5.1 21.193 17.808 85.991H372.696l5.105 19.942h262.047l22.913 105.904h202.27l19.094 85.99H630.962l-19.094-85.99-3.819-19.914H395.61l5.099 19.914h180.648l17.775 85.99 3.82 21.162h284.993L907 746H572.437zM484 341l-3.857-21H349l5.104 21H484z m-179 0l-5.121-21H185l3.832 21H305z"  horiz-adv-x="1024" />

    
    <glyph glyph-name="boc" unicode="&#59011;" d="M436.8768 819.7152C132.5632 765.0944-27.3984 425.6672 128.6592 160.36800000000005c163.8624-280.9056 569.616-296.512 752.9856-23.408C1096.2272 460.7808 815.3184 889.9424 436.8768 819.7152zM460.2848 651.952c0-105.3376 3.904-93.6352-50.7168-97.536-89.7344-7.8016-105.3408-31.2128-109.2416-144.3552-3.9008-175.568 7.8016-202.8768 105.3376-210.6784 62.4256-7.8016 58.5248-3.9008 58.5248-97.5328 0-89.7344 0-89.7344-62.4256-66.3296C120.8576 125.25760000000002 58.4352 495.8944 292.5216 675.3632c42.9184 35.1104 124.848 70.224 156.0608 70.224l11.7024 0L460.2848 651.952zM612.4448 737.7855999999999c261.4016-74.128 351.1328-409.6544 163.8624-608.6304-54.624-54.6208-156.0608-109.2448-198.976-105.344l-7.8048 3.9072-3.9008 74.128c0 93.6352-3.9008 85.8272 42.9152 89.7312 97.5392 7.8016 109.2416 31.2128 113.1392 171.6672 0 156.0608-15.6 183.3696-113.1392 191.1712l-39.0144 3.9008-3.9008 11.7056c-3.9008 15.6064-3.9008 167.7632 0 171.664C569.5264 745.5871999999999 581.232 745.5871999999999 612.4448 737.7855999999999zM624.1472 468.5824c11.7056-7.8016 11.7056-156.0576 0-167.7632-11.7024-11.6992-218.4832-11.6992-226.2848 0-3.9008 7.8048-3.9008 159.9616 0 167.7632C405.664 472.4864 616.3424 472.4864 624.1472 468.5824z"  horiz-adv-x="1024" />

    
    <glyph glyph-name="abc" unicode="&#59010;" d="M475.004923 520.650263l0-3.805676 3.805676 0 1.954515-1.826602 5.616928-1.830695 52.780087 0 5.686513 1.830695 1.855254 1.826602 1.909489 0 1.89107 3.805676 1.847068 1.836835 0 7.458879L552.351522 794.9300929999999l-18.878976 1.901303-20.697391 0-20.736277 0-20.770046-1.901303 0-264.983093 1.885953-7.458879L475.004923 520.650263 475.004923 520.650263zM604.150258 820.252829l0-86.445838c0.352017-0.086981 0.704035-0.185218 1.055029-0.277316l0-37.471426 0-192.235233-3.874237-5.563716-3.736091-1.904373-5.655813-1.896186-7.503904-1.904373-47.163159 0-3.799536 0-3.731998-1.821485-1.89107-3.668553-1.880837-3.805676L525.968641 354.53492100000005l1.880837 1.895163 1.89107 1.836835 5.650697 0 105.526405 0 7.606235 1.832741 3.810792 0 3.697205 1.898233 1.87572 3.663436 1.924839 1.905396 1.885953 3.659343 0 5.632277L661.718395 677.408493l0 36.205597c125.231189-56.136531 212.307384-180.375114 212.307384-324.645938 0-180.196035-135.822408-329.166905-312.206628-353.168552l0 75.095325 0 67.99972 0 30.015617 79.099523 0 7.606235 1.840928 3.810792 1.893116 3.697205 0 1.880837 3.729951 1.924839 1.906419 1.880837 3.66139 0 5.628184L661.719418 354.53492100000005l-3.805676-3.797489-5.578042-3.805676-5.695722-1.826602-5.720282-1.830695-103.640452 0-3.804652 0-3.731998-1.834788-1.89107-3.733021-1.880837-3.733021L525.970688 210.75016700000003l-28.312836 0L497.657852 333.97260700000004l0 3.733021-3.736091 3.733021-3.804652 1.830695-3.731998 0L382.678144 343.26934300000005l-5.691629 1.834788-5.616928 1.826602-5.691629 3.805676-1.846044 1.826602-1.88493 1.966795 0-126.9616 1.88493-5.632277 0-3.657296 1.846044-1.906419 3.771907-3.729951 3.804652 0 1.851161-1.89721 7.576559-1.836835 79.196737 0 0-173.146479c-176.496783 23.903409-312.434825 172.928514-312.434825 353.205391 0 144.271848 87.071078 268.520663 212.313523 324.652078l0-36.313044 0.190335 0.102331 0-300.55117 1.879813-5.632277 0-3.659343 1.851161-1.905396 3.771907-3.663436 1.919722-1.898233 3.736091 0 7.572466-1.832741 107.435894 0 3.804652 0 3.736091-3.730974L497.655805 483.257631l0 3.805676-3.736091 3.668553-3.804652 1.821485-3.731998 0-47.15702 0-5.652743 1.904373-5.622044 1.896186-5.691629 1.904373-1.879813 1.831718-1.856277 3.726881L418.523537 696.0582489999999 418.523537 787.530566l0 0 0 32.561603C215.966215 777.878742 63.961242 600.897935 63.961242 388.968152c0-243.377006 200.470801-440.687838 447.77321-440.687838 247.296269 0 447.772186 197.309808 447.772186 440.687838C959.506638 601.171158 807.107693 778.338207 604.150258 820.252829L604.150258 820.252829 604.150258 820.252829zM604.150258 820.252829"  horiz-adv-x="1024" />

    
    <glyph glyph-name="doctor" unicode="&#59387;" d="M527.552 679.664L542.4 679.664 542.4 698.3199999999999 561.44 698.3199999999999 561.44 713.168 542.4 713.168 542.4 731.8240000000001 527.552 731.8240000000001 527.552 713.168 509.28 713.168 509.28 698.3199999999999 527.552 698.3199999999999ZM688.72 584.096L688.72 742.288c0 0-153.344 119.472-306.72 0l0-158.192c0 0 48.816 48.816 151.472 50.48C636.112 636.256 688.72 584.096 688.72 584.096zM478.576 723.7760000000001c0 17.92 14.528 32.448 32.448 32.448 9.696 0 18.368-4.288 24.336-11.024 5.952 6.736 14.624 11.024 24.32 11.024 17.92 0 32.448-14.528 32.448-32.448 0-9.92-4.464-18.768-11.472-24.72l0.016 0-44.64-43.808-46.016 43.808 0.016 0C483.04 705.008 478.576 713.8720000000001 478.576 723.7760000000001zM370.416 524.304c0-91.072 73.856-205.312 164.944-205.312 91.056 0 164.928 114.224 164.928 205.312 0 4.32-0.32 8.544-0.64 12.768l-25.84 25.632c-2.336 2.224-46.784 43.648-133.6 43.648l-4.448-0.048c-90.464-1.472-133.248-41.872-135.024-43.6l-29.808-28.848C370.72 530.688 370.416 527.5360000000001 370.416 524.304zM707.008 369.48800000000006L538.704 81.72799999999995l-151.456 287.76c0 0-139.152-12.528-178.304-205.872-7.008-34.64 8.688-87.424 39.664-104.432 46.288-25.392 134.448-52.928 298.512-51.52 164.064-1.408 252.224 26.112 298.512 51.52 30.992 16.992 46.688 69.792 39.664 104.432C846.16 356.96000000000004 707.008 369.48800000000006 707.008 369.48800000000006zM413.68 44.81600000000003c-59.424 0-113.968 22.64-116.784 23.84l12.416 29.488c0.768-0.32 76.96-31.856 140.064-17.648l7.024-31.216C442.336 46.096000000000004 427.872 44.81600000000003 413.68 44.81600000000003zM664.576 38.70399999999995c-14.176 0-28.624 1.296-42.72 4.464l7.024 31.216c63.28-14.272 139.28 17.328 140.048 17.648l12.432-29.488C778.56 61.34400000000005 724.016 38.70399999999995 664.576 38.70399999999995z"  horiz-adv-x="1024" />

    
    <glyph glyph-name="diagnosis" unicode="&#59009;" d="M889.376 388.128c-47.616 0-89.6-24.8-113.472-62.176-22.816 0.544-43.072-3.648-60.992-12.512-54.72-27.072-72.352-88.544-89.472-147.968-25.056-87.328-44.448-141.088-124.032-145.984-37.76-2.368-67.36 7.552-89.76 30.24-33.088 33.536-46.112 116.192-50.72 158.56a44.224 44.224 0 0 0 17.792 40.48c166.592 122.624 245.696 240.768 235.2 351.488-9.92 105.28-97.472 169.824-142.944 196.544 3.872-9.216 3.872-9.216 0 0a76.736 76.736 0 1 1-11.136-78.432c34.432-24.96 77.024-67.008 82.496-124.832 4.224-44.416-14.208-93.152-54.208-145.184l-360.704-0.16c-39.392 52.096-57.696 100.512-53.664 144.576 4.96 53.408 75.232 119.648 75.232 119.648a76.192 76.192 0 0 1 54.08-22.368c42.304 0 76.576 34.368 76.576 76.736a76.672 76.672 0 0 1-150.784 19.808v-0.064C81.408 755.296 11.104 693.888 2.336 600.192c-11.296-118.176 80.16-243.968 270.016-376.256 20.672-14.432 27.072-162.528 87.904-224.512 34.112-34.688 77.952-52.16 130.464-52.16 4.96 0 10.016 0.128 15.2 0.48 134.176 8.224 165.696 117.824 188.672 197.856 13.344 46.496 25.984 90.4 52.256 103.392 2.432 1.216 5.536-6.944 8.352-6.176 0.896-73.632 60.384-123.904 134.208-123.904a134.592 134.592 0 1 1-0.032 269.216z m-695.296-10.4h228a787.936 787.936 0 0 0-84.48-69.824 50.144 50.144 0 0 0-59.072 0.16c-31.744 23.264-59.936 46.112-84.448 69.664z m762.784-159.552a68.64 68.64 0 0 1-67.488 81.6 68.768 68.768 0 0 1-67.552-81.6 76.192 76.192 0 1 0 135.04 0z"  horiz-adv-x="1024" />

    
    <glyph glyph-name="clinic" unicode="&#59008;" d="M642.44509227 804.30528353H520.43914667v-13.50263466c0-4.34013227 3.37565867-9.16250133 7.71579093-9.16250134h34.2388224v-32.3098752c0-4.34013227 3.37565867-9.16250133 7.71579093-9.1625024h23.1473728c4.34013227 0 7.23355413 5.30460587 7.23355414 9.1625024v32.3098752h33.75658666c4.34013227 0 8.19802773 4.82236907 8.19802774 9.16250134v13.50263466M721.35358774 829.85467522h-88.87699581v93.95567981c0 11.4270419-8.88769987 15.23605771-20.31474455 15.23605772h-59.67455419c-11.4270419 0-20.31474172-5.07868684-20.31474174-15.23605772v-93.95567981h-88.8769958c-11.4270419 0-20.31474172-5.07868684-20.31474173-15.23605766v-60.94422523c0-11.4270419 8.88769987-24.12375473 20.31474173-24.12375481h88.8769958v-85.06798275c0-11.4270419 8.88769987-24.12375473 20.31474174-24.12375759h60.94422804c11.4270419 0 19.04507074 13.9663839 19.0450707 24.12375759v85.06798275h88.87699581c11.4270419 0 21.5844127 12.69671286 21.58441276 24.12375481v59.67455419c-1.26967099 12.69671286-10.15737088 16.50572871-21.58441276 16.5057287zM1041.31077159-100.41501498000002h-20.31474176v826.55606466c0 35.55079946-5.07868684 35.55079946-10.15737091 35.55079942h-208.22610417v-35.55079942c0-44.43849931-36.82047047-83.79831178-81.25896701-83.79830897h-29.20244159v-25.3934286c0-44.43849931-35.55079946-85.06798283-79.98929877-85.06798276h-60.94422518c-44.43849931 0-79.98929596 40.62948347-79.98929597 85.06798276v25.3934286h-30.47211262c-44.43849931 0-79.98929596 40.62948347-79.98929595 83.79830897v35.55079942h-208.22610697c-5.07868684 0-10.15737088 0-10.15737091-35.55079942v-826.55606466h-20.31474174c-16.50572871 0-30.47211262-13.9663839-30.47211262-30.47211261s13.9663839-30.47211262 30.47211262-30.47211262h919.24207355c16.50572871 0 30.47211262 13.9663839 30.47211538 30.47211262s-13.9663839 30.47211262-30.47211538 30.47211261z m-745.29709499 566.27343227c0 5.07868684 5.07868684 5.07868684 10.15737091 5.07868684h219.65314893c5.07868684 0 10.15737088 1.26967099 10.15737083-5.07868684v-95.22535084h-239.96789067v95.22535084z m241.2375617-450.7333369c0-5.07868684-5.07868684-15.23605771-10.15737089-15.23605493h-219.6531489c-5.07868684 0-10.15737088 8.88769987-10.15737088 15.23605493v295.83343186h239.96789067v-295.83343186z m90.14666682 450.7333369c0 5.07868684 3.80901297 5.07868684 8.88769985 5.07868684h219.6531461c5.07868684 0 11.4270419 1.26967099 11.42704468-5.07868684v-95.22535084h-239.96789063v95.22535084z m239.96789063-450.7333369c0-5.07868684-6.34835783-15.23605771-11.42704468-15.23605493H636.28560497c-5.07868684 0-8.88769987 8.88769987-8.88769985 15.23605493v295.83343186h239.96789063v-295.83343186z"  horiz-adv-x="1142" />

    
    <glyph glyph-name="tongue" unicode="&#59007;" d="M923.11703665 504.59645952c-38.83614777-30.66011648-87.8923355-53.14420281-145.12455339-65.40824917 2.04400754-8.17603129 2.04400754-40.88015645 0-100.15638187 69.49626539 34.74813269 118.55245198 89.93634304 145.12455339 165.56463104z m-811.47109489 0c26.57210141-75.628288 75.628288-130.81649949 145.12455339-165.56463104-2.04400754 59.27622656-2.04400754 91.98035058 0 100.15638187-57.23221789 14.30805504-106.28840562 34.74813269-145.12455339 65.40824917z m406.75755121-12.26404637c-100.15638187 22.48408633-161.47661597 16.35206258-202.35677126-14.30805504-14.30805504-10.22003883-18.39607011-36.79214023-18.39607013-77.67229553 2.04400754-141.03653831 4.08801507-237.10490397 24.52809274-298.42513807 24.52809387-75.628288 94.02435811-120.59645952 196.22474865-128.77249194 102.20038941 8.17603129 173.74066233 53.14420281 196.22474866 128.77249194 20.44007765 61.3202341 22.48408633 157.38860089 24.52809387 298.42513807 0 40.88015645-6.13202375 67.45225785-18.39607011 77.67229553-42.92416398 30.66011648-104.24439808 34.74813269-202.35677242 14.30805504z m0 63.36424164c-49.05618659 0-102.20038941 8.17603129-161.47661596 24.52809387-51.10019527 12.26404637-100.15638187 8.17603129-147.16856092-14.30805504-28.61610894-12.26404637-55.18821035-20.44007765-81.76031176-24.52809273 38.83614777-32.70412515 85.84832797-53.14420281 138.99252964-63.36424278 18.39607011 51.10019527 108.33241315 79.71630421 249.36895147 53.14420282 141.03653831 26.57210141 230.97288135-2.04400754 249.36895147-53.14420282 53.14420281 10.22003883 100.15638187 30.66011648 138.99252963 63.36424278-26.57210141 2.04400754-55.18821035 12.26404637-81.76031176 24.52809273-47.01217906 20.44007765-96.06836679 26.57210141-147.16856091 14.30805504-57.23221789-16.35206258-110.37642069-24.52809387-157.3886009-24.52809387z m0 134.90451456c-38.83614777 2.04400754-73.58428046 20.44007765-114.46443691 34.7481327-91.98035058 34.74813269-214.62081877 4.08801507-290.24910677-143.08054586 22.48408633 2.04400754 49.05618659 8.17603129 77.67229668 20.44007766 59.27622656 26.57210141 118.55245198 32.70412515 188.04871737 14.30805504 47.01217906-12.26404637 91.98035058-20.44007765 136.9485221-20.44007766 47.01217906 0 91.98035058 8.17603129 138.99252963 20.44007766 69.49626539 18.39607011 128.77249081 12.26404637 188.04871737-14.30805504 28.61610894-12.26404637 55.18821035-18.39607011 77.67229668-20.44007766-75.628288 145.12455339-198.26875619 175.78467101-290.24910677 143.08054586-40.88015645-16.35206258-75.628288-34.74813269-112.42042938-34.7481327z m-79.71630421 59.27622656c26.57210141-14.30805504 53.14420281-22.48408633 75.62828914-22.48408633 24.52809387 0 51.10019527 6.13202375 77.67229554 22.48408633 124.68447573 67.45225785 284.11708416 8.17603129 380.18545094-181.91669362 2.04400754-2.04400754 2.04400754-6.13202375 0-12.2640475-22.48408633-122.64046819-87.8923355-208.48879502-198.26875619-259.58899029-2.04400754-112.42042937-12.26404637-190.09272491-34.74813269-228.92887268-47.01217906-83.80431929-120.59645952-126.72848327-224.8408576-130.81649948-104.24439808 4.08801507-179.87268608 47.01217906-226.88486627 130.81649948-22.48408633 40.88015645-32.70412515 116.50844445-34.74813157 228.92887268C142.30605824 347.20785977 74.85380153 433.05618659 54.41372273 555.69665479c-2.04400754 6.13202375-2.04400754 10.22003883 0 12.2640475 102.20038941 190.09272491 259.58899029 251.41295901 384.27346603 181.91669362z"  horiz-adv-x="1024" />

    
    <glyph glyph-name="pulse" unicode="&#58944;" d="M465.5 388.2c-8.4 0-17 1.5-25.3 4.7L402 407.7l14.4 37.3 38.3-14.7c13.7-5.3 29 0.1 36.4 12.8 0.2 0.4 0.5 0.8 0.7 1.2 58 85.6 109.5 101.9 143.2 106.8 24.2 3.5 241.2 33.5 243.3 33.8l5.5-39.6c-2.2-0.3-219-30.3-243.1-33.8-26.1-3.8-66.4-17.1-115.4-89.1-13-21.8-35.9-34.2-59.8-34.2zM271.9 319.20000000000005c-39.7 0-64.6 7.7-76.5 23.3-8.4 11-8.5 23.4-5.8 31.6 2.5 10 20.6 81.5 55.7 155.6 22.1 46.6 46.3 84.5 72 112.6 34 37.1 70.9 57.7 109.8 61 1.1 0.1 2.2 0.1 3.4 0l105.7-8.8h0.3c20.4-2 40.7-0.4 60.6 4.7l270.3 69.2 9.9-38.8L607 660.4c-24.3-6.2-49.2-8.2-74.2-5.8L429 663.3c-66-6.8-116.4-85.3-147.2-150.2-32-67.5-49.8-134.9-53-147.4 5.7-3.3 28.9-12 106.8-1.5 11.1 1.5 30.6 6 38.8 19.1 5.4 14.5 41.2 106.9 98.6 155.4l25.8-30.6c-52.9-44.7-87-139.1-87.4-140-0.4-1-0.8-2-1.3-2.9-12-21.8-36.5-36.2-69.1-40.6-26.9-3.5-49.8-5.4-69.1-5.4z m-44.7 41.5c-0.1 0-0.1 0 0 0-0.1 0-0.1 0 0 0zM224.9-1c-2.1 0-4.3 0.3-6.3 1-8.7 2.9-15.6 9-19.4 17.2-4.3 9.2-4.4 20.8-0.4 31 4.4 11.2 15 20.9 32.3 29.5 13.1 6.6 29.9 12.6 50 17.8 39.9 10.4 86.9 16.4 129.1 16.4 45.1 0 91.3-11.9 114.9-19 17.7-5.3 60-19.2 72.3-33.4 8.4-9.8 10.3-24.7 4.6-37.2-6.3-13.7-20.3-21.9-37.5-21.9-194 0-317.5-0.5-338.8-1.3-0.3-0.1-0.5-0.1-0.8-0.1z m10.8 33.9z m174.5 39c-37.3 0-79.3-5.1-115.1-14.1-26.2-6.5-42-13.4-50.7-18.4 58.3 0.8 209.1 0.9 308.6 0.9-10 4.4-24.6 9.9-43 15.3-35.8 10.5-71.2 16.3-99.8 16.3zM757.7 47.700000000000045c-6.7 0-13.5 1-20.1 2.9l-224.8 67.1c-55.8 16.7-115.7 20-173 9.7L95.9 83.70000000000005l-7.1 39.4 243.8 43.8c63.5 11.4 129.7 7.7 191.5-10.8L749 89c10.6-3.2 22.1-0.3 30 7.6l0.3 0.3 128.5 122.5c-15.2 10.2-36 8.5-49.3-4.9l-0.4-0.4-59.9-56.9c-18.3-18.2-45-24.8-69.7-17.4l-165 49.8 11.6 38.3 165-49.8c10.7-3.2 22.2-0.3 30.1 7.6l0.4 0.4 59.9 56.9c30.8 30.6 80.9 30.6 111.6-0.2 6.2-6.2 9.5-14.3 9.5-23s-3.4-16.9-9.5-23l-0.3-0.3-134.7-128.4c-13.3-13.2-31.2-20.4-49.4-20.4zM680.4 160.5c-13.2 0-28.1 2.3-45 7.9l12.5 38c34.6-11.4 60.3-6 76.4 16.1 0.5 0.7 0.7 1.5 0.4 2.2-0.3 0.9-0.9 1.1-1.2 1.2l-192.5 59c-25.1 7.7-49.6 8.2-70.9 1.5C323.4 243.60000000000002 225 240.10000000000002 141 275.29999999999995c-9.7 4.1-28.5 15.7-50.2 29.3-3.5 2.2-6.6 4.2-9 5.6l21 34c2.4-1.5 5.6-3.5 9.3-5.8 12-7.5 36.9-23.1 44.4-26.3 74.7-31.3 164.6-27.5 291.7 12.4 29.1 9.1 61.8 8.6 94.6-1.5l192.4-59.1c12.9-4 23.2-14 27.5-26.8 4.3-13 2.1-27.3-6-38.4-11.8-15.9-35.5-38.2-76.3-38.2z"  horiz-adv-x="1024" />

    
    <glyph glyph-name="ingredient" unicode="&#59125;" d="M801.388946-27.74259900000004L216.137619-27.74259900000004c0 0 55.856146 49.429783 151.255912 56.844659 0 0-285.706067 78.099752-301.029054 418.178171l889.741203 0c0 0-38.555108-317.340555-305.477366-420.155199C744.544287 31.573345000000018 801.388946-27.74259900000004 801.388946-27.74259900000004zM270.015713 780.933311c55.361889-81.559551 163.613358-273.842879 163.613358-273.842879L263.096117 507.090433c0 0-90.457198 168.55695-110.22952 202.663746C120.736828 764.62181 228.989321 840.743512 270.015713 780.933311zM512.717338 371.652787c0 0-149.278885-80.07678-108.745726-182.397167 22.243607-57.338916 57.833173-50.912553 57.833173-50.912553L506.786255 248.57156399999997l0-208.100572c0 0 54.867632 55.856146 108.745726 148.784628S512.717338 371.652787 512.717338 371.652787z"  horiz-adv-x="1024" />

    
    <glyph glyph-name="export" unicode="&#58943;" d="M512.061-123.01300000000003L346.037 43.00999999999999l34.786 34.786 106.79-106.79V406.684h49.139v-435.677l106.79 106.79 34.787-34.786-166.268-166.024zM678.086 43.00999999999999M660.57 135.32799999999997v49.139h111.17c91.466 0 165.903 74.437 165.903 165.902 0 86.966-67.99 159.578-154.713 165.295l-48.895 3.284-5.96 48.652c-13.379 108.98-106.182 191.08-216.014 191.08s-202.635-82.1-216.014-191.08l-5.96-48.652-48.895-3.284c-86.722-5.716-154.713-78.33-154.713-165.295 0-91.465 74.437-165.902 165.903-165.902h111.17v-49.139h-111.17c-118.59 0-215.041 96.452-215.041 215.041-0.122 54.734 20.798 107.278 58.26 147.05 37.462 39.774 87.938 63.613 142.307 67.262l8.27 0.608 0.974 8.27c16.42 133.55 130.265 234.26 264.91 234.26 134.643 0 248.367-100.71 264.787-234.26l0.973-8.27 8.27-0.608c54.37-3.649 104.845-27.488 142.307-67.261 37.584-39.895 58.261-92.196 58.261-147.05 0-118.59-96.452-215.042-215.041-215.042H660.57z m0 0"  horiz-adv-x="1024" />

    
    <glyph glyph-name="preview-line" unicode="&#59006;" d="M545 102.39999999999998H243.8c-11 0-20 9-20 20V645.6c0 11 9 20 20 20h432.4c11 0 20-9 20-20v-131.8c0-11 9-20 20-20s20 9 20 20V645.6c0 33.1-26.9 60-60 60H243.8c-33.1 0-60-26.9-60-60v-523.2c0-33.1 26.9-60 60-60H545c11 0 20 9 20 20s-8.9 20-20 20zM834.6 106.20000000000005l-88.8 91.7c23.4 28.7 37.5 65.4 37.5 105.3 0 92.1-74.9 167-167 167s-167-74.9-167-167 74.9-167 167-167c37.8 0 72.7 12.6 100.7 33.9l89-91.8c3.9-4 9.1-6 14.3-6 5 0 10.1 1.9 14 5.7 7.8 7.6 8 20.3 0.3 28.2z m-218.4 69.9c-70 0-127 57-127 127s57 127 127 127 127-57 127-127-57-127-127-127zM565 513.8c0 11-9 20-20 20H308.7c-11 0-20-9-20-20s9-20 20-20H545c11.1 0 20 9 20 20zM443.5 402.5c0 11-9 20-20 20H308.7c-11 0-20-9-20-20s9-20 20-20h114.8c11.1 0 20 8.9 20 20zM308.7 311.20000000000005c-11 0-20-9-20-20s9-20 20-20h61.7c11 0 20 9 20 20s-9 20-20 20h-61.7z"  horiz-adv-x="1024" />

    
    <glyph glyph-name="news" unicode="&#58942;" d="M928 896l-704 0c-53.024 0-96-42.944-96-96l0-64-32 0c-53.024 0-96-42.944-96-96l0-640c0-70.688 57.312-128 128-128l768 0c70.688 0 128 57.312 128 128l0 800c0 53.056-43.008 96-96 96zM960 0c0-35.264-28.736-64-64-64l-768 0c-35.296 0-64 28.736-64 64l0 640c0 17.664 14.336 32 32 32l32 0 0-640c0-17.696 14.304-32 32-32s32 14.304 32 32l0 768c0 17.664 14.336 32 32 32l704 0c17.632 0 32-14.336 32-32l0-800zM623.936 479.84c-8.8 0-16 7.168-16 16s7.2 16 16 16l256 0c8.864 0 16-7.168 16-16s-7.136-16-16-16l-256 0zM623.936 575.84c-8.8 0-16 7.168-16 16s7.2 16 16 16l256 0c8.864 0 16-7.168 16-16s-7.136-16-16-16l-256 0zM623.936 671.84c-8.8 0-16 7.168-16 16s7.2 16 16 16l256 0c8.864 0 16-7.168 16-16s-7.136-16-16-16l-256 0zM528 31.872c8.832 0 16-7.2 16-16 0-8.864-7.2-16-16-16l-256 0c-8.832 0-16 7.136-16 16 0 8.8 7.168 16 16 16l256 0zM528 127.872c8.832 0 16-7.2 16-16 0-8.864-7.2-16-16-16l-256 0c-8.832 0-16 7.136-16 16 0 8.8 7.168 16 16 16l256 0zM528 223.872c8.832 0 16-7.2 16-16 0-8.864-7.2-16-16-16l-256 0c-8.832 0-16 7.136-16 16 0 8.8 7.168 16 16 16l256 0zM880 31.872c8.8 0 16-7.2 16-16 0-8.864-7.2-16-16-16l-256 0c-8.864 0-16 7.136-16 16 0 8.8 7.136 16 16 16l256 0zM880 127.872c8.8 0 16-7.2 16-16 0-8.864-7.2-16-16-16l-256 0c-8.864 0-16 7.136-16 16 0 8.8 7.136 16 16 16l256 0zM880 223.872c8.8 0 16-7.2 16-16 0-8.864-7.2-16-16-16l-256 0c-8.864 0-16 7.136-16 16 0 8.8 7.136 16 16 16l256 0zM880 415.872c8.8 0 16-7.168 16-16s-7.2-16-16-16l-608 0c-8.832 0-16 7.168-16 16s7.168 16 16 16l608 0zM880 319.872c8.8 0 16-7.2 16-16 0-8.864-7.2-16-16-16l-608 0c-8.832 0-16 7.136-16 16 0 8.8 7.168 16 16 16l608 0zM288 480l224 0c17.696 0 32 14.304 32 32l0 223.872c0 17.696-14.304 32-32 32l-224 0c-17.696 0-32-14.304-32-32l0-223.872c0-17.664 14.304-32 32-32zM320 704l160 0 0-160-160 0 0 160z"  horiz-adv-x="1024" />

    
    <glyph glyph-name="md-log" unicode="&#58941;" d="M796.444444-128H227.555556a113.777778 113.777778 0 0 0-113.777778 113.777778V725.333333a113.777778 113.777778 0 0 0 113.777778 113.777778h113.777777v-170.666667h341.333334V839.111111h113.777777a113.777778 113.777778 0 0 0 113.777778-113.777778v-739.555555a113.777778 113.777778 0 0 0-113.777778-113.777778zM711.111111 497.777778h-398.222222a28.444444 28.444444 0 0 1 0-56.888889h398.222222a28.444444 28.444444 0 0 1 0 56.888889z m0-170.666667h-398.222222a28.444444 28.444444 0 0 1 0-56.888889h398.222222a28.444444 28.444444 0 0 1 0 56.888889z m0-170.666667h-398.222222a28.444444 28.444444 0 0 1 0-56.888888h398.222222a28.444444 28.444444 0 0 1 0 56.888888zM568.888889 725.333333H455.111111a56.888889 56.888889 0 0 0-56.888889 56.888889V839.111111a56.888889 56.888889 0 0 0 56.888889 56.888889h113.777778a56.888889 56.888889 0 0 0 56.888889-56.888889v-56.888889a56.888889 56.888889 0 0 0-56.888889-56.888889z"  horiz-adv-x="1024" />

    
    <glyph glyph-name="log" unicode="&#59021;" d="M811.993-96l-599.988 0c-66.289 0-119.988 53.746-119.988 119.988l0 599.989c0 66.289 53.699 120.035 119.988 120.035l89.979 0 0 59.972 80.828 0c25.968 35.722 73.813 60.017 129.186 60.017s103.22-24.295 129.187-60.017l80.782 0 0-59.972 90.025 0c66.243 0 119.989-53.746 119.989-120.035l0-599.989c0.001-66.242-53.745-119.988-119.988-119.988l0 0zM661.997 744.011l-66.661 0c0 33.122-37.301 59.972-83.337 59.972-46.035 0-83.337-26.85-83.337-59.972l-66.659 0 0-120.035 299.994 0 0 120.035zM871.964 623.977c0 33.168-26.85 60.017-59.971 60.017l-90.025 0 0-119.988-419.982 0 0 119.988-89.979 0c-33.121 0-60.018-26.85-60.018-60.017l0-599.989c0-33.12 26.898-59.97 60.018-59.97l599.988 0c33.121 0 59.971 26.85 59.971 59.97l0 599.989-0.001 0zM721.968 84.00699999999995l-419.982 0c-16.537 0-29.963 13.425-29.963 30.008 0 16.584 13.425 30.009 29.963 30.009l419.982 0c16.583 0 30.008-13.425 30.008-30.009-0.001-16.583-13.426-30.008-30.008-30.008l0 0zM721.968 234.00400000000002l-419.982 0c-16.537 0-29.963 13.425-29.963 30.008 0 16.537 13.425 30.008 29.963 30.008l419.982 0c16.583 0 30.008-13.471 30.008-30.008-0.001-16.584-13.426-30.008-30.008-30.008l0 0zM721.968 384l-419.982 0c-16.537 0-29.963 13.425-29.963 30.009s13.425 30.009 29.963 30.009l419.982 0c16.583 0 30.008-13.425 30.008-30.009s-13.426-30.009-30.008-30.009l0 0z"  horiz-adv-x="1024" />

    
    <glyph glyph-name="trash" unicode="&#59102;" d="M896 597.333333H128c-25.6 0-42.666667 17.066667-42.666667 42.666667s17.066667 42.666667 42.666667 42.666667h768c25.6 0 42.666667-17.066667 42.666667-42.666667s-17.066667-42.666667-42.666667-42.666667zM725.333333-85.33333300000004H298.666667c-72.533333 0-128 55.466667-128 128V640c0 25.6 17.066667 42.666667 42.666666 42.666667s42.666667-17.066667 42.666667-42.666667v-597.333333c0-25.6 17.066667-42.666667 42.666667-42.666667h426.666666c25.6 0 42.666667 17.066667 42.666667 42.666667V640c0 25.6 17.066667 42.666667 42.666667 42.666667s42.666667-17.066667 42.666666-42.666667v-597.333333c0-72.533333-55.466667-128-128-128zM682.666667 597.333333c-25.6 0-42.666667 17.066667-42.666667 42.666667V725.333333c0 25.6-17.066667 42.666667-42.666667 42.666667h-170.666666c-25.6 0-42.666667-17.066667-42.666667-42.666667v-85.333333c0-25.6-17.066667-42.666667-42.666667-42.666667s-42.666667 17.066667-42.666666 42.666667V725.333333c0 72.533333 55.466667 128 128 128h170.666666c72.533333 0 128-55.466667 128-128v-85.333333c0-25.6-17.066667-42.666667-42.666666-42.666667zM426.666667 128c-25.6 0-42.666667 17.066667-42.666667 42.666667v256c0 25.6 17.066667 42.666667 42.666667 42.666666s42.666667-17.066667 42.666666-42.666666v-256c0-25.6-17.066667-42.666667-42.666666-42.666667zM597.333333 128c-25.6 0-42.666667 17.066667-42.666666 42.666667v256c0 25.6 17.066667 42.666667 42.666666 42.666666s42.666667-17.066667 42.666667-42.666666v-256c0-25.6-17.066667-42.666667-42.666667-42.666667z"  horiz-adv-x="1024" />

    
    <glyph glyph-name="code" unicode="&#59073;" d="M646.005 268.005c11.667-11.667 30.759-11.667 42.426 0l155.564 155.564c5.889 5.889 8.801 13.669 8.745 21.431 0.056 7.762-2.856 15.542-8.745 21.431L688.431 621.995c-11.667 11.667-30.759 11.667-42.426 0s-11.667-30.759 0-42.426L780.574 445 646.005 310.431c-11.667-11.667-11.667-30.759 0-42.426zM187.005 423.569l155.564-155.564c11.667-11.667 30.759-11.667 42.426 0s11.667 30.759 0 42.426L250.426 445l134.569 134.569c11.667 11.667 11.667 30.759 0 42.426s-30.759 11.667-42.426 0L187.005 466.431c-5.889-5.889-8.801-13.669-8.745-21.431-0.056-7.762 2.856-15.542 8.745-21.431zM465.022 194.463c16.14-3.43 32.151 6.968 35.582 23.107l91.481 430.385c3.431 16.14-6.968 32.151-23.107 35.582-16.14 3.431-32.152-6.968-35.582-23.107l-91.481-430.385c-3.431-16.14 6.968-32.151 23.107-35.582zM900.75 831h-776c-33 0-60-27-60-60v-648c0-33 27-60 60-60h776c33 0 60 27 60 60V771c0 33-27 60-60 60z m1.5-708h-779V771h779v-648zM881-5H162c-16.5 0-30-13.5-30-30s13.5-30 30-30h719c16.5 0 30 13.5 30 30s-13.5 30-30 30z"  horiz-adv-x="1024" />

    
    <glyph glyph-name="multiply" unicode="&#58940;" d="M561.17013333 386.93973333L858.02666667 682.26026667c14.03733333 13.968 14.1088 36.60053333 0.1408 50.63786666-13.99893333 14.06826667-36.592 14.10773333-50.62933334 0.1408L510.6048 437.68533333 216.256 732.93013333c-13.9328 13.96693333-36.59733333 14.03733333-50.63466667 0.07146667-14.00426667-13.96586667-14.03733333-36.63146667-0.0704-50.6688l294.27733334-295.1744-296.71466667-295.14026667c-14.0384-13.968-14.1088-36.59733333-0.14293333-50.63786666a35.7216 35.7216 0 0 1 25.3856-10.56c9.13066667 0 18.26666667 3.4688 25.25013333 10.4192l296.78613333 295.2128L807.4304 38.51733333000004c6.9824-7.02186667 16.15253333-10.53013333 25.35253333-10.53013333a35.72906667 35.72906667 0 0 1 25.28213334 10.45973333c13.99893333 13.96586667 14.03733333 36.592 0.07146666 50.62933334L561.17013333 386.93973333z m0 0"  horiz-adv-x="1024" />

    
    <glyph glyph-name="config" unicode="&#58938;" d="M655.872-64a61.952 61.952 0 0 0-45.376 19.136c-14.912 16.192-62.272 58.24-100.992 58.24-38.464 0-86.528-42.304-100.352-57.216a62.144 62.144 0 0 0-68.224-14.144l-1.28 0.576-117.76 65.088-1.088 0.832a55.552 55.552 0 0 0-18.944 67.52c0.064 0.192 10.816 24.768 10.816 47.168 0 67.968-56 123.392-124.8 123.392h-4.16l-0.768-0.064c-19.712 0-35.776 17.344-40.896 44.096C41.6 292.736 32 343.552 32 383.616c0 40 9.6 90.88 10.048 92.992 5.184 27.136 21.568 44.48 41.664 44.096h4.16c68.8 0 124.8 55.296 124.8 123.328 0 22.4-10.752 46.976-10.88 47.232a55.424 55.424 0 0 0 19.136 67.456l1.216 0.832 124.224 67.456 1.344 0.576a63.36 63.36 0 0 0 67.968-13.952c14.656-15.232 61.184-54.784 98.816-54.784 37.312 0 83.52 38.784 98.112 53.76a63.616 63.616 0 0 0 68.032 13.376l1.28-0.576 120-65.92 1.216-0.832a55.424 55.424 0 0 0 19.072-67.456c-0.128-0.192-10.88-24.768-10.88-47.168 0-67.968 56-123.328 124.8-123.328h4.16c19.968 0.384 36.416-17.024 41.6-44.096 0.512-2.112 10.112-52.992 10.112-92.992 0-40.064-9.6-90.88-10.048-92.992-5.184-27.136-21.632-44.48-41.6-44.032h-4.16c-68.8 0-124.8-55.36-124.8-123.392 0-22.464 10.752-46.976 10.88-47.232a55.36 55.36 0 0 0-19.072-67.392l-1.28-0.896-122.048-66.688-1.344-0.512a56.32 56.32 0 0 0-22.656-4.48z m-6.016 64.832a8.192 8.192 0 0 1 3.648-0.96h0.192l112.128 61.056c-2.688 6.208-15.04 36.16-15.04 67.584 0 93.76 75.008 170.56 169.024 175.296 1.344 7.36 8.704 48.832 8.704 79.808s-7.296 72.384-8.704 79.744c-94.016 4.864-169.024 81.664-169.024 175.36 0 31.424 12.416 61.44 15.104 67.648l-110.4 60.352h-0.448a8.448 8.448 0 0 1-4.16-1.088 309.12 309.12 0 0 0-40.832-33.728c-33.984-23.552-66.176-35.456-95.552-35.456-29.76 0-62.144 12.16-96.384 36.16a312.064 312.064 0 0 0-41.024 34.432 9.088 9.088 0 0 1-4.224 1.024H372.48l-114.304-61.76c2.752-6.272 15.104-36.288 15.104-67.584 0-93.696-75.008-170.496-169.024-175.36-1.408-7.36-8.704-48.704-8.704-79.744s7.36-72.384 8.704-79.744c94.016-4.8 169.024-81.6 169.024-175.36 0-31.424-12.48-61.632-15.104-67.712l108.16-59.52h0.256a8 8 0 0 1 3.584 0.896c2.048 2.112 18.176 19.008 41.408 35.776 34.688 25.088 67.648 37.76 97.92 37.76 30.656 0 63.872-12.928 98.752-38.464 23.36-17.152 39.616-34.24 41.6-36.416z m-137.984 223.104c-88.32 0-160.192 71.68-160.192 159.808s71.872 159.744 160.192 159.744c88.384 0 160.256-71.616 160.256-159.744s-71.872-159.808-160.256-159.808z m0 255.744a96 96 0 0 1 0-191.808 95.936 95.936 0 0 1 0 191.808z"  horiz-adv-x="1024" />

    
    <glyph glyph-name="back" unicode="&#59291;" d="M802.909091 408.855273H333.661091l184.762182 170.589091a34.909091 34.909091 0 1 1-47.36 51.269818l-250.391273-231.098182a34.955636 34.955636 0 0 1 0-51.316364l250.391273-231.098181a34.862545 34.862545 0 0 1 49.338182 1.954909 34.909091 34.909091 0 0 1-1.978182 49.338181l-184.762182 170.542546H802.909091a34.909091 34.909091 0 1 1 0 69.818182"  horiz-adv-x="1024" />

    
    <glyph glyph-name="right" unicode="&#59293;" d="M244.363636 339.06036400000005h469.248l-184.762181-170.565819a34.909091 34.909091 0 1 1 47.36-51.29309l250.391272 231.121454a34.955636 34.955636 0 0 1 0 51.293091l-250.391272 231.121455a34.862545 34.862545 0 0 1-49.338182-1.95491 34.909091 34.909091 0 0 1 1.978182-49.338181l184.762181-170.565819H244.363636a34.909091 34.909091 0 1 1 0-69.818181"  horiz-adv-x="1024" />

    
    <glyph glyph-name="login" unicode="&#59731;" d="M442.9 273.5c-14.1-14.1-14.1-36.8-0.1-50.8 7-7 16.3-10.6 25.5-10.6s18.5 3.5 25.5 10.5l135.8 135.8c14.1 14.1 14.1 37.1 0 51.2L493.8 545.3c-14.1 14.1-36.9 14.1-50.9 0-14.1-14.1-14.1-36.9 0-50.9l74.3-74.3-481.1-0.1c-19.9 0-36-16.1-36-36s16.2-36.1 36-36.1l481.1-0.1-74.3-74.3zM983.7 583.2C957.9 644.2 921 699 874 746S772.3 830 711.3 855.8C648.2 882.5 581.1 896 512 896c-81.3 0-159.1-18.5-231.2-55-68.7-34.9-129.7-85.7-176.3-147.2-12.1-15.8-9-38.4 6.8-50.4 15.8-12.1 38.4-9 50.4 6.8 40.2 52.8 92.6 96.6 151.7 126.5C375.3 808.1 442.1 824 512 824c59.4 0 117-11.6 171.2-34.5 52.4-22.1 99.5-53.9 139.9-94.3 40.4-40.4 72.1-87.5 94.3-139.9C940.4 501 952 443.4 952 384s-11.6-117-34.5-171.2c-22.1-52.4-53.9-99.5-94.3-139.9-40.4-40.4-87.5-72.1-139.9-94.3C629-44.5 571.4-56 512-56c-69.9 0-136.7 15.9-198.8 47.4-59 29.9-111.5 73.7-151.7 126.5-12 15.8-34.6 18.8-50.4 6.8-15.8-12-18.8-34.6-6.8-50.4 46.8-61.5 107.8-112.4 176.5-147.2 72.1-36.5 149.9-55 231.2-55 69.1 0 136.2 13.5 199.3 40.2C772.2-62 827-25 874 22s84 101.7 109.8 162.7c26.7 63.1 40.2 130.2 40.2 199.3s-13.5 136.2-40.3 199.2z"  horiz-adv-x="1024" />

    
    <glyph glyph-name="logout" unicode="&#58999;" d="M511.991851-127.982934c-282.320581 0-511.991381 229.679334-511.991382 511.991382 0 282.277915 229.670801 511.991381 511.991382 511.991381a510.813801 510.813801 0 0 0 344.271538-133.032427 42.640349 42.640349 0 0 0 2.901284-60.244319c-15.829067-17.493039-42.793946-18.730351-60.286985-2.901285A425.840298 425.840298 0 0 1 511.991851 810.667932c-235.26004 0-426.659485-191.399445-426.659485-426.659484 0-235.302706 191.399445-426.659485 426.659485-426.659485 105.982216 0 207.569839 39.082009 286.032518 110.078147a42.606216 42.606216 0 0 0 60.244319-2.986616 42.640349 42.640349 0 0 0-2.986616-60.244319c-94.163748-85.246565-216.103029-132.179108-343.290221-132.179109M885.975955 343.552596H341.328057c-23.466272 0-42.665948 19.199677-42.665948 42.665948s19.199677 42.665948 42.665948 42.665948h544.647898L792.989787 524.550082a42.77688 42.77688 0 0 0 0 60.329651 42.77688 42.77688 0 0 0 60.329651 0l158.205337-162.770593a42.58915 42.58915 0 0 0 12.356059-32.946646 42.77688 42.77688 0 0 0 0-5.879367 42.58915 42.58915 0 0 0-12.356059-32.955179L853.319438 187.55735500000003a42.77688 42.77688 0 0 0-60.329651 0 42.77688 42.77688 0 0 0 0 60.329651l92.986168 95.674123z"  horiz-adv-x="1024" />

    
    <glyph glyph-name="menu" unicode="&#58937;" d="M128 426.666667m40.533333 0l686.933334 0q40.533333 0 40.533333-40.533334l0-4.266666q0-40.533333-40.533333-40.533334l-686.933334 0q-40.533333 0-40.533333 40.533334l0 4.266666q0 40.533333 40.533333 40.533334ZM128 213.333333m40.533333 0l686.933334 0q40.533333 0 40.533333-40.533333l0-4.266667q0-40.533333-40.533333-40.533333l-686.933334 0q-40.533333 0-40.533333 40.533333l0 4.266667q0 40.533333 40.533333 40.533333ZM128 640m40.533333 0l686.933334 0q40.533333 0 40.533333-40.533333l0-4.266667q0-40.533333-40.533333-40.533333l-686.933334 0q-40.533333 0-40.533333 40.533333l0 4.266667q0 40.533333 40.533333 40.533333Z"  horiz-adv-x="1024" />

    
    <glyph glyph-name="ios-people" unicode="&#59223;" d="M698.2 226.6c-22.4 8-59 8.4-75.2 14.6-11.2 4.4-29 9.2-34.8 16.2-5.8 7-5.8 57-5.8 57s14 13.2 19.8 28c5.8 14.6 9.6 55 9.6 55s13.2-5.6 18.4 20.8c4.4 22.8 12.8 34.8 10.6 51.6-2.4 16.8-11.6 12.8-11.6 12.8s11.6 17 11.6 74.8c0 59.6-45 118.2-129.2 118.2-84 0-129.4-58.8-129.4-118.2 0-57.8 11.4-74.8 11.4-74.8s-9.4 4-11.6-12.8c-2.4-16.8 6-28.8 10.6-51.6 5.2-26.6 18.4-20.8 18.4-20.8s3.8-40.2 9.6-55c5.8-14.8 19.8-28 19.8-28s0-50-5.8-57-23.6-11.8-34.8-16c-16-6.2-52.6-7-75.2-15-22.4-8-91.6-44.4-91.6-134.4h556.6c0.2 90.2-69 126.6-91.4 134.6zM280 324s47.8 1.6 66.8 18.6c-31 47-14.2 101.8-20.6 153-6.4 51-35.4 81.6-93.4 81.6h-0.8c-56 0-86.2-30.4-92.6-81.6-6.4-51 11.4-112-20.4-153C138 325.4 186 326 186 326s2-28.8-2-33.6c-4-4.8-15.8-9.4-24-11-17.6-3.8-36.2-9-51.8-14.4-15.6-5.4-45.2-34.4-45.2-74.4h160.6c4.4 16 34.6 44.6 64 59.6 18 9.2 35.8 8.6 49.4 10.4 0 0 7.6 12-17.4 16.6 0 0-34.4 8.6-38.4 13.4-3.8 4.4-1.2 31.4-1.2 31.4z m464 0s-47.8 1.6-66.8 18.6c31 47 14.2 101.8 20.6 153 6.4 51 35.4 81.6 93.4 81.6h0.8c56 0 86.2-30.4 92.6-81.6 6.4-51-11.4-112 20.4-153-19-17.2-67-16.6-67-16.6s-2-28.8 2-33.6c4-4.8 15.8-9.4 24-11 17.6-3.8 36.2-9 51.8-14.4 15.6-5.4 45.2-34.4 45.2-74.4h-160.6c-4.4 16-34.6 44.6-64 59.6-18 9.2-35.8 8.6-49.4 10.4 0 0-7.6 12 17.4 16.6 0 0 34.4 8.6 38.4 13.4 3.8 4.4 1.2 31.4 1.2 31.4z"  horiz-adv-x="1024" />

    
    <glyph glyph-name="access-point" unicode="&#58894;" d="M210.346667 685.653333A425.344 425.344 0 0 1 85.333333 384c0-117.76 47.786667-224.426667 125.013334-301.653333l60.16 60.16A338.688 338.688 0 0 0 170.666667 384c0 94.293333 37.973333 180.053333 99.84 241.493333L210.346667 685.653333m603.306666 0l-60.16-60.16A339.413333 339.413333 0 0 0 853.333333 384c0-94.72-37.973333-180.053333-99.84-241.493333l60.16-60.16A425.344 425.344 0 0 1 938.666667 384c0 117.76-47.786667 224.426667-125.013334 301.653333M331.093333 564.906667A255.146667 255.146667 0 0 1 256 384c0-70.4 28.586667-134.4 75.093333-180.906667l60.16 60.16A170.24 170.24 0 0 0 341.333333 384c0 47.36 19.2 90.026667 49.92 120.746667L331.093333 564.906667m361.813334 0l-60.16-60.16A170.24 170.24 0 0 0 682.666667 384c0-47.36-19.2-90.026667-49.92-120.746667l60.16-60.16A255.146667 255.146667 0 0 1 768 384c0 70.4-28.586667 134.4-75.093333 180.906667M512 469.333333a85.333333 85.333333 0 0 1-85.333333-85.333333 85.333333 85.333333 0 0 1 85.333333-85.333333 85.333333 85.333333 0 0 1 85.333333 85.333333 85.333333 85.333333 0 0 1-85.333333 85.333333z"  horiz-adv-x="1024" />

    
    <glyph glyph-name="account-box-outline" unicode="&#58895;" d="M810.666667 85.333333H213.333333V682.666667h597.333334m0 85.333333H213.333333a85.333333 85.333333 0 0 1-85.333333-85.333333v-597.333334a85.333333 85.333333 0 0 1 85.333333-85.333333h597.333334a85.333333 85.333333 0 0 1 85.333333 85.333333V682.666667a85.333333 85.333333 0 0 1-85.333333 85.333333m-106.666667-565.333333c0 64-128 96-192 96s-192-32-192-96V170.666667h384M512 373.333333A96 96 0 0 1 608 469.333333 96 96 0 0 1 512 565.333333 96 96 0 0 1 416 469.333333 96 96 0 0 1 512 373.333333z"  horiz-adv-x="1024" />

    
    <glyph glyph-name="account-box" unicode="&#58897;" d="M256 170.666667c0 85.333333 170.666667 132.266667 256 132.266666s256-46.933333 256-132.266666v-42.666667H256m384 384a128 128 0 0 0-128-128 128 128 0 0 0-128 128 128 128 0 0 0 128 128 128 128 0 0 0 128-128M128 682.666667v-597.333334a85.333333 85.333333 0 0 1 85.333333-85.333333h597.333334a85.333333 85.333333 0 0 1 85.333333 85.333333V682.666667a85.333333 85.333333 0 0 1-85.333333 85.333333H213.333333a85.333333 85.333333 0 0 1-85.333333-85.333333z"  horiz-adv-x="1024" />

    
    <glyph glyph-name="access-point-network" unicode="&#58898;" d="M210.346667 770.986667A425.344 425.344 0 0 1 85.333333 469.333333c0-117.76 47.786667-224.426667 125.013334-301.653333l60.16 60.16A338.688 338.688 0 0 0 170.666667 469.333333c0 94.293333 37.973333 180.053333 99.84 241.493334L210.346667 770.986667m603.306666 0l-60.16-60.16A339.413333 339.413333 0 0 0 853.333333 469.333333c0-94.72-37.973333-180.053333-99.84-241.493333l60.16-60.16A425.344 425.344 0 0 1 938.666667 469.333333c0 117.76-47.786667 224.426667-125.013334 301.653334M331.093333 650.24A255.146667 255.146667 0 0 1 256 469.333333c0-70.4 28.586667-134.4 75.093333-180.906666l60.16 60.16A170.24 170.24 0 0 0 341.333333 469.333333c0 47.36 19.2 90.026667 49.92 120.746667L331.093333 650.24m361.813334 0l-60.16-60.16A170.24 170.24 0 0 0 682.666667 469.333333c0-47.36-19.2-90.026667-49.92-120.746666l60.16-60.16A255.146667 255.146667 0 0 1 768 469.333333c0 70.4-28.586667 134.4-75.093333 180.906667M512 554.666667a85.333333 85.333333 0 0 1-85.333333-85.333334 85.333333 85.333333 0 0 1 85.333333-85.333333 85.333333 85.333333 0 0 1 85.333333 85.333333 85.333333 85.333333 0 0 1-85.333333 85.333334m-42.666667-256v-170.666667h-42.666666a42.666667 42.666667 0 0 1-42.666667-42.666667H85.333333v-85.333333h298.666667a42.666667 42.666667 0 0 1 42.666667-42.666667h170.666666a42.666667 42.666667 0 0 1 42.666667 42.666667h298.666667v85.333333h-298.666667a42.666667 42.666667 0 0 1-42.666667 42.666667h-42.666666v170.666667h-85.333334z"  horiz-adv-x="1024" />

    
    <glyph glyph-name="account-alert" unicode="&#58900;" d="M426.666667 725.333333a170.666667 170.666667 0 0 0 170.666666-170.666666 170.666667 170.666667 0 0 0-170.666666-170.666667 170.666667 170.666667 0 0 0-170.666667 170.666667 170.666667 170.666667 0 0 0 170.666667 170.666666m0-426.666666c188.586667 0 341.333333-76.373333 341.333333-170.666667v-85.333333H85.333333v85.333333c0 94.293333 152.746667 170.666667 341.333334 170.666667m426.666666 85.333333V597.333333h85.333334v-213.333333h-85.333334m0-170.666667v85.333334h85.333334v-85.333334h-85.333334z"  horiz-adv-x="1024" />

    
    <glyph glyph-name="account-card-details" unicode="&#58901;" d="M85.333333 768h853.333334c44.8 0 85.333333-40.533333 85.333333-85.333333v-597.333334c0-44.8-40.533333-85.333333-85.333333-85.333333H85.333333c-44.8 0-85.333333 40.533333-85.333333 85.333333V682.666667c0 44.8 40.533333 85.333333 85.333333 85.333333m512-128v-42.666667h341.333334V640h-341.333334m0-85.333333v-42.666667h341.333334V554.666667h-341.333334m0-85.333334v-42.666666h298.666667v42.666666h-298.666667m-256-166.826666C256 302.506667 85.333333 256 85.333333 170.666667v-42.666667h512v42.666667c0 85.333333-170.666667 131.84-256 131.84M341.333333 640a128 128 0 0 1-128-128 128 128 0 0 1 128-128 128 128 0 0 1 128 128 128 128 0 0 1-128 128z"  horiz-adv-x="1024" />

    
    <glyph glyph-name="account" unicode="&#58903;" d="M512 725.333333a170.666667 170.666667 0 0 0 170.666667-170.666666 170.666667 170.666667 0 0 0-170.666667-170.666667 170.666667 170.666667 0 0 0-170.666667 170.666667 170.666667 170.666667 0 0 0 170.666667 170.666666m0-426.666666c188.586667 0 341.333333-76.373333 341.333333-170.666667v-85.333333H170.666667v85.333333c0 94.293333 152.746667 170.666667 341.333333 170.666667z"  horiz-adv-x="1024" />

    
    <glyph glyph-name="account-check" unicode="&#58904;" d="M384 682.666667a149.333333 149.333333 0 0 0 149.333333-149.333334A149.333333 149.333333 0 0 0 384 384a149.333333 149.333333 0 0 0-149.333333 149.333333A149.333333 149.333333 0 0 0 384 682.666667m0-373.333334c165.12 0 298.666667-66.986667 298.666667-149.333333V85.333333H85.333333v74.666667c0 82.346667 133.546667 149.333333 298.666667 149.333333m341.333333 46.506667l-117.333333 128 49.493333 49.493333L725.333333 465.493333l153.173334 153.173334 49.493333-60.16L725.333333 355.84z"  horiz-adv-x="1024" />

    
    <glyph glyph-name="account-key" unicode="&#58905;" d="M469.333333 469.333333v-85.333333h-42.666666v-85.333333H341.333333v85.333333H248.746667A127.573333 127.573333 0 0 0 128 298.666667a128 128 0 0 0-128 128 128 128 0 0 0 128 128c55.893333 0 103.253333-35.413333 120.746667-85.333334H469.333333m-341.333333 0a42.666667 42.666667 0 0 1-42.666667-42.666666 42.666667 42.666667 0 0 1 42.666667-42.666667 42.666667 42.666667 0 0 1 42.666667 42.666667 42.666667 42.666667 0 0 1-42.666667 42.666666m554.666667-170.666666c113.92 0 341.333333-57.173333 341.333333-170.666667v-85.333333H341.333333v85.333333c0 113.493333 227.413333 170.666667 341.333334 170.666667m0 85.333333a170.666667 170.666667 0 0 0-170.666667 170.666667 170.666667 170.666667 0 0 0 170.666667 170.666666 170.666667 170.666667 0 0 0 170.666666-170.666666 170.666667 170.666667 0 0 0-170.666666-170.666667z"  horiz-adv-x="1024" />

    
    <glyph glyph-name="account-convert" unicode="&#58906;" d="M320-21.333333l57.6 57.173333 162.56-162.56L512-128C243.626667-128 23.893333 78.506667 2.133333 341.333333h64c15.36-160.426667 115.2-296.106667 253.866667-362.666666m384 810.666666l-57.6-57.173333L483.84 894.72 512 896c268.373333 0 488.106667-206.506667 509.866667-469.333333h-64c-15.36 160.426667-115.2 295.68-253.866667 362.666666M256 170.666667c0 85.333333 170.666667 132.266667 256 132.266666s256-46.933333 256-132.266666v-42.666667H256v42.666667m384 341.333333a128 128 0 0 0-128-128 128 128 0 0 0-128 128 128 128 0 0 0 128 128 128 128 0 0 0 128-128z"  horiz-adv-x="1024" />

    
    <glyph glyph-name="account-circle" unicode="&#58907;" d="M512 76.8c-106.666667 0-200.96 54.613333-256 136.533333 1.28 85.333333 170.666667 132.266667 256 132.266667s254.72-46.933333 256-132.266667a308.565333 308.565333 0 0 0-256-136.533333M512 682.666667a128 128 0 0 0 128-128 128 128 0 0 0-128-128 128 128 0 0 0-128 128 128 128 0 0 0 128 128m0 128A426.666667 426.666667 0 0 1 85.333333 384a426.666667 426.666667 0 0 1 426.666667-426.666667 426.666667 426.666667 0 0 1 426.666667 426.666667c0 235.946667-192 426.666667-426.666667 426.666667z"  horiz-adv-x="1024" />

    
    <glyph glyph-name="account-minus" unicode="&#58909;" d="M640 298.666667c-113.92 0-341.333333-56.746667-341.333333-170.666667v-85.333333h682.666666v85.333333c0 113.92-227.413333 170.666667-341.333333 170.666667M42.666667 469.333333v-85.333333h341.333333v85.333333m256-85.333333a170.666667 170.666667 0 0 1 170.666667 170.666667 170.666667 170.666667 0 0 1-170.666667 170.666666 170.666667 170.666667 0 0 1-170.666667-170.666666 170.666667 170.666667 0 0 1 170.666667-170.666667z"  horiz-adv-x="1024" />

    
    <glyph glyph-name="account-location" unicode="&#58910;" d="M768 213.333333H256v38.4c0 85.333333 170.666667 132.266667 256 132.266667s256-46.933333 256-132.266667m-256 418.133334c64 0 115.2-51.2 115.2-115.2 0-64-51.2-115.2-115.2-115.2-64 0-115.2 51.2-115.2 115.2 0 64 51.2 115.2 115.2 115.2M810.666667 810.666667H213.333333c-47.36 0-85.333333-37.973333-85.333333-85.333334v-597.333333a85.333333 85.333333 0 0 1 85.333333-85.333333h170.666667l128-128 128 128h170.666667a85.333333 85.333333 0 0 1 85.333333 85.333333V725.333333a85.333333 85.333333 0 0 1-85.333333 85.333334z"  horiz-adv-x="1024" />

    
    <glyph glyph-name="account-multiple" unicode="&#58911;" d="M682.666667 341.333333c-12.373333 0-26.453333 0-41.386667-2.133333C690.773333 303.36 725.333333 256 725.333333 192V85.333333h256v106.666667c0 99.413333-199.253333 149.333333-298.666666 149.333333m-341.333334 0c-99.413333 0-298.666667-49.92-298.666666-149.333333V85.333333h597.333333v106.666667c0 99.413333-199.253333 149.333333-298.666667 149.333333m0 85.333334a128 128 0 0 1 128 128 128 128 0 0 1-128 128 128 128 0 0 1-128-128 128 128 0 0 1 128-128m341.333334 0a128 128 0 0 1 128 128 128 128 0 0 1-128 128 128 128 0 0 1-128-128 128 128 0 0 1 128-128z"  horiz-adv-x="1024" />

    
    <glyph glyph-name="account-multiple-minus" unicode="&#58912;" d="M554.666667 341.333333c-85.333333 0-256-42.666667-256-128v-85.333333h512v85.333333c0 85.333333-170.666667 128-256 128m282.453333-6.826666c35.413333-30.72 58.88-70.826667 58.88-121.173334v-85.333333h128v85.333333c0 65.706667-101.12 106.666667-186.88 121.173334M554.666667 426.666667a128 128 0 0 1 128 128 128 128 0 0 1-128 128 128 128 0 0 1-128-128 128 128 0 0 1 128-128m213.333333 0a128 128 0 0 1 128 128 128 128 0 0 1-128 128c-13.653333 0-26.88-2.133333-39.253333-5.973334 24.32-34.56 39.253333-76.8 39.253333-122.026666 0-45.226667-14.933333-87.04-39.253333-121.6 12.373333-4.266667 25.6-6.4 39.253333-6.4M341.333333 469.333333H0v-85.333333h341.333333v85.333333z"  horiz-adv-x="1024" />

    
    <glyph glyph-name="account-multiple-plus" unicode="&#58914;" d="M554.666667 341.333333c-85.333333 0-256-42.666667-256-128v-85.333333h512v85.333333c0 85.333333-170.666667 128-256 128m282.453333-6.826666c35.413333-30.72 58.88-70.826667 58.88-121.173334v-85.333333h128v85.333333c0 65.706667-101.12 106.666667-186.88 121.173334M554.666667 426.666667a128 128 0 0 1 128 128 128 128 0 0 1-128 128 128 128 0 0 1-128-128 128 128 0 0 1 128-128m213.333333 0a128 128 0 0 1 128 128 128 128 0 0 1-128 128c-13.653333 0-26.88-2.133333-39.253333-5.973334 24.32-34.56 39.253333-76.8 39.253333-122.026666 0-45.226667-14.933333-87.04-39.253333-121.6 12.373333-4.266667 25.6-6.4 39.253333-6.4M341.333333 469.333333H213.333333V597.333333H128v-128H0v-85.333333h128v-128h85.333333v128h128v85.333333z"  horiz-adv-x="1024" />

    
    <glyph glyph-name="account-multiple-outline" unicode="&#58915;" d="M704 618.666667a85.333333 85.333333 0 0 0 85.333333-85.333334 85.333333 85.333333 0 0 0-85.333333-85.333333 85.333333 85.333333 0 0 0-85.333333 85.333333 85.333333 85.333333 0 0 0 85.333333 85.333334m0-234.666667A149.333333 149.333333 0 0 1 853.333333 533.333333 149.333333 149.333333 0 0 1 704 682.666667 149.333333 149.333333 0 0 1 554.666667 533.333333a149.333333 149.333333 0 0 1 149.333333-149.333333m-384 234.666667a85.333333 85.333333 0 0 0 85.333333-85.333334 85.333333 85.333333 0 0 0-85.333333-85.333333 85.333333 85.333333 0 0 0-85.333333 85.333333 85.333333 85.333333 0 0 0 85.333333 85.333334m0-234.666667A149.333333 149.333333 0 0 1 469.333333 533.333333 149.333333 149.333333 0 0 1 320 682.666667 149.333333 149.333333 0 0 1 170.666667 533.333333 149.333333 149.333333 0 0 1 320 384m597.333333-234.666667H597.333333v53.333334c0 19.626667-8.533333 36.693333-21.333333 52.053333 36.693333 12.8 82.773333 22.613333 128 22.613333 104.106667 0 213.333333-51.626667 213.333333-74.666666m-384-53.333334h-426.666666v53.333334c0 23.04 109.226667 74.666667 213.333333 74.666666s213.333333-51.626667 213.333333-74.666666m170.666667 138.666666c-51.2 0-130.986667-14.506667-192-42.666666-61.013333 28.586667-140.8 42.666667-192 42.666666C227.413333 341.333333 42.666667 295.253333 42.666667 202.666667V85.333333h938.666666v117.333334c0 92.586667-184.746667 138.666667-277.333333 138.666666z"  horiz-adv-x="1024" />

    
    <glyph glyph-name="account-plus" unicode="&#58916;" d="M640 298.666667c-113.92 0-341.333333-56.746667-341.333333-170.666667v-85.333333h682.666666v85.333333c0 113.92-227.413333 170.666667-341.333333 170.666667m-384 170.666666V597.333333H170.666667v-128H42.666667v-85.333333h128v-128h85.333333v128h128v85.333333m256-85.333333a170.666667 170.666667 0 0 1 170.666667 170.666667 170.666667 170.666667 0 0 1-170.666667 170.666666 170.666667 170.666667 0 0 1-170.666667-170.666666 170.666667 170.666667 0 0 1 170.666667-170.666667z"  horiz-adv-x="1024" />

    
    <glyph glyph-name="account-network" unicode="&#58917;" d="M554.666667 213.333333v-85.333333h42.666666a42.666667 42.666667 0 0 0 42.666667-42.666667h298.666667v-85.333333h-298.666667a42.666667 42.666667 0 0 0-42.666667-42.666667h-170.666666a42.666667 42.666667 0 0 0-42.666667 42.666667H85.333333v85.333333h298.666667a42.666667 42.666667 0 0 0 42.666667 42.666667h42.666666v85.333333H213.333333v64c0 82.346667 133.546667 149.333333 298.666667 149.333334s298.666667-66.986667 298.666667-149.333334V213.333333h-256M512 810.666667a149.333333 149.333333 0 0 0 149.333333-149.333334A149.333333 149.333333 0 0 0 512 512a149.333333 149.333333 0 0 0-149.333333 149.333333A149.333333 149.333333 0 0 0 512 810.666667z"  horiz-adv-x="1024" />

    
    <glyph glyph-name="account-off" unicode="&#58918;" d="M512 725.333333a170.666667 170.666667 0 0 0 170.666667-170.666666c0-83.2-59.733333-152.746667-138.666667-167.68L344.32 586.666667A170.837333 170.837333 0 0 0 512 725.333333m11.946667-426.666666l256-256L853.333333-30.72 799.146667-85.333333l-128 128H170.666667v85.333333c0 78.506667 106.666667 144.64 250.453333 164.693333L118.613333 595.2l54.186667 54.186667L523.946667 298.666667M853.333333 128v-50.346667l-207.36 207.36C768 258.986667 853.333333 198.4 853.333333 128z"  horiz-adv-x="1024" />

    
    <glyph glyph-name="account-outline" unicode="&#58919;" d="M512 341.333333c-113.92 0-341.333333-56.746667-341.333333-170.666666v-128h682.666666v128c0 113.92-227.413333 170.666667-341.333333 170.666666m0 384a170.666667 170.666667 0 0 1-170.666667-170.666666 170.666667 170.666667 0 0 1 170.666667-170.666667 170.666667 170.666667 0 0 1 170.666667 170.666667 170.666667 170.666667 0 0 1-170.666667 170.666666m0-465.066666c126.72 0 260.266667-62.293333 260.266667-89.6v-46.933334H251.733333V170.666667c0 27.306667 132.266667 89.6 260.266667 89.6m0 384A89.6 89.6 0 0 0 601.6 554.666667a89.6 89.6 0 0 0-89.6-89.6A89.6 89.6 0 0 0 422.4 554.666667 89.6 89.6 0 0 0 512 644.266667z"  horiz-adv-x="1024" />

    
    <glyph glyph-name="account-remove" unicode="&#58921;" d="M640 298.666667c113.92 0 341.333333-56.746667 341.333333-170.666667v-85.333333H298.666667v85.333333c0 113.92 227.413333 170.666667 341.333333 170.666667m0 85.333333a170.666667 170.666667 0 0 0-170.666667 170.666667 170.666667 170.666667 0 0 0 170.666667 170.666666 170.666667 170.666667 0 0 0 170.666667-170.666666 170.666667 170.666667 0 0 0-170.666667-170.666667M213.333333 486.826667l90.453334 90.88 60.586666-60.586667L273.493333 426.666667l90.88-90.453334-60.586666-60.586666L213.333333 366.506667l-90.453333-90.88-60.586667 60.586666L153.173333 426.666667 62.293333 517.12l60.586667 60.586667L213.333333 486.826667z"  horiz-adv-x="1024" />

    
    <glyph glyph-name="account-star" unicode="&#58927;" d="M640 298.666667c-113.92 0-341.333333-56.746667-341.333333-170.666667v-85.333333h682.666666v85.333333c0 113.92-227.413333 170.666667-341.333333 170.666667m0 85.333333a170.666667 170.666667 0 0 1 170.666667 170.666667 170.666667 170.666667 0 0 1-170.666667 170.666666 170.666667 170.666667 0 0 1-170.666667-170.666666 170.666667 170.666667 0 0 1 170.666667-170.666667M213.333333 329.386667l104.533334-63.573334-27.733334 119.893334L384 465.92l-123.306667 10.666667L213.333333 589.226667 165.12 476.586667 42.666667 465.92l93.013333-80.213333-29.013333-119.893334L213.333333 329.386667z"  horiz-adv-x="1024" />

    
    <glyph glyph-name="account-settings" unicode="&#58929;" d="M512 725.333333a170.666667 170.666667 0 0 0 170.666667-170.666666 170.666667 170.666667 0 0 0-170.666667-170.666667 170.666667 170.666667 0 0 0-170.666667 170.666667 170.666667 170.666667 0 0 0 170.666667 170.666666m0-426.666666c188.586667 0 341.333333-76.373333 341.333333-170.666667v-85.333333H170.666667v85.333333c0 94.293333 152.746667 170.666667 341.333333 170.666667m-213.333333-341.333334h85.333333v-85.333333H298.666667v85.333333m170.666666 0h85.333334v-85.333333h-85.333334v85.333333m170.666667 0h85.333333v-85.333333h-85.333333v85.333333z"  horiz-adv-x="1024" />

    
    <glyph glyph-name="account-settings-variant" unicode="&#58933;" d="M384 725.333333a170.666667 170.666667 0 0 1-170.666667-170.666666 170.666667 170.666667 0 0 1 170.666667-170.666667 170.666667 170.666667 0 0 1 170.666667 170.666667 170.666667 170.666667 0 0 1-170.666667 170.666666m0-426.666666c-113.92 0-341.333333-56.746667-341.333333-170.666667v-85.333333h472.746666c-2.133333 14.08-3.413333 28.16-3.413333 42.666666 0 64 21.333333 128 60.16 179.2-65.28 22.186667-137.813333 34.133333-188.16 34.133334m384 0a11.093333 11.093333 0 0 1-11.093333-8.96l-8.106667-56.32c-12.8-5.546667-25.173333-12.373333-36.266667-20.053334l-52.906666 21.333334c-4.693333 0-10.24 0-13.226667-5.546667l-42.666667-73.813333c-2.56-4.693333-1.706667-10.24 2.56-13.653334l45.226667-34.986666a178.901333 178.901333 0 0 1 0-42.666667l-45.226667-34.986667a11.093333 11.093333 0 0 1-2.56-13.653333l42.666667-73.813333c2.56-5.546667 8.106667-5.546667 13.226667-5.546667l52.906666 21.333333c11.093333-7.68 23.04-14.933333 36.266667-20.053333l8.106667-56.32c0.853333-5.12 5.12-8.96 11.093333-8.96h85.333333c4.693333 0 9.386667 3.84 10.24 8.96l8.106667 56.32c12.8 5.546667 24.32 12.373333 35.84 20.053333l52.48-21.333333c5.546667 0 11.093333 0 14.08 5.546667l42.666667 73.813333a11.093333 11.093333 0 0 1-2.56 13.653333l-45.653334 34.986667c0.853333 7.253333 1.706667 14.08 1.706667 21.333333 0 7.253333-0.426667 14.08-1.706667 21.333334l45.226667 34.986666a11.093333 11.093333 0 0 1 2.56 13.653334l-42.666667 73.813333c-2.56 5.546667-8.106667 5.546667-13.653333 5.546667l-52.48-21.333334c-11.52 7.68-23.04 14.933333-36.266667 20.053334l-8.106666 56.32A10.069333 10.069333 0 0 1 853.333333 298.666667m-42.666666-149.333334a64 64 0 0 0 64-64 64 64 0 0 0-64-64c-35.84 0-64 28.586667-64 64a64 64 0 0 0 64 64z"  horiz-adv-x="1024" />

    
    <glyph glyph-name="account-search" unicode="&#58934;" d="M405.333333 768A277.333333 277.333333 0 0 0 682.666667 490.666667c0-68.693333-25.173333-131.84-66.986667-180.48l11.946667-11.52h33.706666l213.333334-213.333334-64-64-213.333334 213.333334v33.706666l-11.52 11.946667A276.096 276.096 0 0 0 405.333333 213.333333 277.333333 277.333333 0 0 0 128 490.666667 277.333333 277.333333 0 0 0 405.333333 768m0-469.333333c68.693333 0 128 36.266667 162.986667 90.453333C533.333333 437.333333 474.026667 469.333333 405.333333 469.333333c-68.693333 0-128-32-162.986666-80.213333C277.333333 334.933333 336.64 298.666667 405.333333 298.666667m0 384a74.666667 74.666667 0 0 1-74.666666-74.666667A74.666667 74.666667 0 0 1 405.333333 533.333333a74.666667 74.666667 0 0 1 74.666667 74.666667A74.666667 74.666667 0 0 1 405.333333 682.666667z"  horiz-adv-x="1024" />

    
    <glyph glyph-name="account-star-variant" unicode="&#58935;" d="M384 298.666667c113.92 0 341.333333-56.746667 341.333333-170.666667v-85.333333H42.666667v85.333333c0 113.92 227.413333 170.666667 341.333333 170.666667m0 85.333333a170.666667 170.666667 0 0 0-170.666667 170.666667 170.666667 170.666667 0 0 0 170.666667 170.666666 170.666667 170.666667 0 0 0 170.666667-170.666666 170.666667 170.666667 0 0 0-170.666667-170.666667m426.666667-54.613333l-104.96-63.573334 28.16 119.893334-93.866667 80.213333 123.306667 10.666667L810.666667 589.226667l48.213333-112.64 122.453333-10.666667-93.013333-80.213333 29.013333-119.893334-106.666666 63.573334z"  horiz-adv-x="1024" />

    
    <glyph glyph-name="account-switch" unicode="&#58936;" d="M682.666667 512c99.413333 0 298.666667-49.92 298.666666-149.333333V256h-256v106.666667c0 64-34.56 111.36-83.626666 147.2L682.666667 512M341.333333 512c99.413333 0 298.666667-49.92 298.666667-149.333333V256H42.666667v106.666667C42.666667 462.08 241.92 512 341.333333 512m0 85.333333a128 128 0 0 0-128 128 128 128 0 0 0 128 128 128 128 0 0 0 128-128 128 128 0 0 0-128-128m341.333334 0a128 128 0 0 0-128 128 128 128 0 0 0 128 128 128 128 0 0 0 128-128 128 128 0 0 0-128-128m-298.666667-416V85.333333h256v96L778.666667 42.666667 640-96V0H384v-96L245.333333 42.666667 384 181.333333z"  horiz-adv-x="1024" />

    
    <glyph glyph-name="barcode" unicode="&#58946;" d="M85.333333 640h85.333334v-512H85.333333V640m128 0h42.666667v-512H213.333333V640m85.333334 0h128v-512H298.666667V640m170.666666 0h42.666667v-512h-42.666667V640m128 0h85.333334v-512h-85.333334V640m128 0h128v-512h-128V640m170.666667 0h42.666667v-512h-42.666667V640z"  horiz-adv-x="1024" />

    
    <glyph glyph-name="battery" unicode="&#58950;" d="M711.253333 725.333333H640V810.666667H384v-85.333334H312.746667A56.746667 56.746667 0 0 1 256 668.586667v-654.506667C256-17.066667 281.6-42.666667 312.746667-42.666667h398.506666A56.746667 56.746667 0 0 1 768 14.08V668.586667C768 699.733333 742.4 725.333333 711.253333 725.333333z"  horiz-adv-x="1024" />

    
    <glyph glyph-name="battery-10" unicode="&#58951;" d="M682.666667 128H341.333333V640h341.333334m28.586666 85.333333H640V810.666667H384v-85.333334H312.746667A56.746667 56.746667 0 0 1 256 668.586667v-654.506667C256-17.066667000000052 281.6-42.66666699999996 312.746667-42.66666699999996h398.506666A56.746667 56.746667 0 0 1 768 14.080000000000041V668.586667C768 699.733333 742.4 725.333333 711.253333 725.333333z"  horiz-adv-x="1024" />

    
    <glyph glyph-name="battery-20" unicode="&#58952;" d="M682.666667 170.66666699999996H341.333333V640h341.333334m28.586666 85.333333H640V810.666667H384v-85.333334H312.746667A56.746667 56.746667 0 0 1 256 668.586667v-654.506667C256-17.066667000000052 281.6-42.66666699999996 312.746667-42.66666699999996h398.506666A56.746667 56.746667 0 0 1 768 14.080000000000041V668.586667C768 699.733333 742.4 725.333333 711.253333 725.333333z"  horiz-adv-x="1024" />

    
    <glyph glyph-name="battery-30" unicode="&#58953;" d="M682.666667 256H341.333333V640h341.333334m28.586666 85.333333H640V810.666667H384v-85.333334H312.746667A56.746667 56.746667 0 0 1 256 668.586667v-654.506667C256-17.066667000000052 281.6-42.66666699999996 312.746667-42.66666699999996h398.506666A56.746667 56.746667 0 0 1 768 14.080000000000041V668.586667C768 699.733333 742.4 725.333333 711.253333 725.333333z"  horiz-adv-x="1024" />

    
    <glyph glyph-name="battery-40" unicode="&#58954;" d="M682.666667 298.66666699999996H341.333333V640h341.333334m28.586666 85.333333H640V810.666667H384v-85.333334H312.746667A56.746667 56.746667 0 0 1 256 668.586667v-654.506667C256-17.066667000000052 281.6-42.66666699999996 312.746667-42.66666699999996h398.506666A56.746667 56.746667 0 0 1 768 14.080000000000041V668.586667C768 699.733333 742.4 725.333333 711.253333 725.333333z"  horiz-adv-x="1024" />

    
    <glyph glyph-name="battery-60" unicode="&#58955;" d="M682.666667 384H341.333333V640h341.333334m28.586666 85.333333H640V810.666667H384v-85.333334H312.746667A56.746667 56.746667 0 0 1 256 668.586667v-654.506667C256-17.066667000000052 281.6-42.66666699999996 312.746667-42.66666699999996h398.506666A56.746667 56.746667 0 0 1 768 14.080000000000041V668.586667C768 699.733333 742.4 725.333333 711.253333 725.333333z"  horiz-adv-x="1024" />

    
    <glyph glyph-name="battery-50" unicode="&#58956;" d="M682.666667 341.33333300000004H341.333333V640h341.333334m28.586666 85.333333H640V810.666667H384v-85.333334H312.746667A56.746667 56.746667 0 0 1 256 668.586667v-654.506667C256-17.066667000000052 281.6-42.66666699999996 312.746667-42.66666699999996h398.506666A56.746667 56.746667 0 0 1 768 14.080000000000041V668.586667C768 699.733333 742.4 725.333333 711.253333 725.333333z"  horiz-adv-x="1024" />

    
    <glyph glyph-name="battery-70" unicode="&#58957;" d="M682.666667 469.333333H341.333333V640h341.333334m28.586666 85.333333H640V810.666667H384v-85.333334H312.746667A56.746667 56.746667 0 0 1 256 668.586667v-654.506667C256-17.066667000000052 281.6-42.66666699999996 312.746667-42.66666699999996h398.506666A56.746667 56.746667 0 0 1 768 14.080000000000041V668.586667C768 699.733333 742.4 725.333333 711.253333 725.333333z"  horiz-adv-x="1024" />

    
    <glyph glyph-name="battery-80" unicode="&#58958;" d="M682.666667 512H341.333333V640h341.333334m28.586666 85.333333H640V810.666667H384v-85.333334H312.746667A56.746667 56.746667 0 0 1 256 668.586667v-654.506667C256-17.066667000000052 281.6-42.66666699999996 312.746667-42.66666699999996h398.506666A56.746667 56.746667 0 0 1 768 14.080000000000041V668.586667C768 699.733333 742.4 725.333333 711.253333 725.333333z"  horiz-adv-x="1024" />

    
    <glyph glyph-name="battery-90" unicode="&#58959;" d="M682.666667 554.666667H341.333333V640h341.333334m28.586666 85.333333H640V810.666667H384v-85.333334H312.746667A56.746667 56.746667 0 0 1 256 668.586667v-654.506667C256-17.066667000000052 281.6-42.66666699999996 312.746667-42.66666699999996h398.506666A56.746667 56.746667 0 0 1 768 14.080000000000041V668.586667C768 699.733333 742.4 725.333333 711.253333 725.333333z"  horiz-adv-x="1024" />

    
    <glyph glyph-name="battery-charging-20" unicode="&#58962;" d="M983.466667 426.666667h-128V725.333333l-213.333334-426.666666h128v-341.333334m-256 213.333334h-341.333333V640h341.333333m28.586667 85.333333h-71.253333V810.666667h-256v-85.333334H144.213333a56.746667 56.746667 0 0 1-56.746666-56.746666v-654.506667c0-31.146667 25.6-56.746667 56.746666-56.746667h398.506667c31.146667 0 56.746667 25.6 56.746667 56.746667V668.586667A56.746667 56.746667 0 0 1 542.72 725.333333z"  horiz-adv-x="1024" />

    
    <glyph glyph-name="battery-alert" unicode="&#58963;" d="M554.666667 298.666667h-85.333334V512h85.333334m0-384h-85.333334v85.333333h85.333334m156.586666 512H640V810.666667H384v-85.333334H312.746667A56.746667 56.746667 0 0 1 256 668.586667v-654.506667C256-17.066667 281.6-42.666667 312.746667-42.666667h398.506666A56.746667 56.746667 0 0 1 768 14.08V668.586667C768 699.733333 742.4 725.333333 711.253333 725.333333z"  horiz-adv-x="1024" />

    
    <glyph glyph-name="battery-charging" unicode="&#58964;" d="M711.253333 725.333333H640V810.666667H384v-85.333334H312.746667A56.746667 56.746667 0 0 1 256 668.586667v-654.08C256-17.066667 281.6-42.666667 312.746667-42.666667h398.08c31.573333 0 57.173333 25.6 57.173333 56.746667V668.586667C768 699.733333 742.4 725.333333 711.253333 725.333333M469.333333 42.666667v234.666666H384L554.666667 597.333333v-234.666666h85.333333"  horiz-adv-x="1024" />

    
    <glyph glyph-name="battery-charging-30" unicode="&#58965;" d="M512 256H170.666667V640h341.333333m28.586667 85.333333H469.333333V810.666667H213.333333v-85.333334H142.08A56.746667 56.746667 0 0 1 85.333333 668.586667v-654.506667C85.333333-17.066667000000052 110.933333-42.66666699999996 142.08-42.66666699999996h398.506667c31.146667 0 56.746667 25.6 56.746666 56.746667V668.586667A56.746667 56.746667 0 0 1 540.586667 725.333333M981.333333 426.666667h-128V725.333333l-213.333333-426.666666h128v-341.333334l213.333333 469.333334z"  horiz-adv-x="1024" />

    
    </font>
</defs>
</svg>
